<svg version="1.1" xmlns="http://www.w3.org/2000/svg" xmlns:xlink="http://www.w3.org/1999/xlink" width="154" height="218" viewBox="0,0,154,218"><g transform="translate(-163,-71)"><g data-paper-data="{&quot;isPaintingLayer&quot;:true}" fill-rule="nonzero" stroke-linecap="butt" stroke-linejoin="miter" stroke-miterlimit="10" stroke-dasharray="" stroke-dashoffset="0" style="mix-blend-mode: normal"><path d="M164,288v-216h152v216z" fill="#66abff" stroke="#000000" stroke-width="2"/><path d="M247.10138,250.983c-0.03781,-1.13799 0.4599,-1.7749 1.01316,-2.13111c0.03725,-2.7156 0.14591,-5.43092 0.32581,-8.14034c1.05513,-15.82701 0.58606,-31.67826 0.77338,-47.51496c-1.89703,2.20081 -4.12817,4.71093 -4.21875,4.77803c-2.78335,2.06168 -8.89766,2.18052 -12.07022,2.68999c-1.58346,0.22284 -3.18613,0.33663 -4.75037,0.66851c-8.6542,1.83614 -19.83334,10.57794 -27.12411,0.44742c-2.11287,-2.93583 -2.09204,-7.59701 -2.37052,-10.96828c-0.68932,-8.34471 -2.20132,-16.27787 -3.54984,-24.52668c-0.44604,-2.72839 -1.06451,-5.46591 -1.02508,-8.23024c0.00745,-0.52217 1.04609,-0.97387 0.7274,-1.38758c-0.29158,-0.37851 -0.82149,0.48816 -1.23223,0.73223c0,0 -2.5,0 -2.5,-2.5c0,-2.5 2.5,-2.5 2.5,-2.5c1.58926,0.24408 3.61514,-0.38882 4.76777,0.73223c1.11577,1.08521 0.50928,3.07131 0.7274,4.61242c0.36579,2.58447 0.55307,5.19385 0.97492,7.76976c1.09331,6.67608 2.64029,13.15507 3.18972,19.91053c0.30989,3.81028 -0.31829,10.11322 1.89758,13.50398c1.58391,2.42372 3.77434,2.6239 6.35873,2.47248c4.4484,-0.26064 8.14052,-2.36686 12.23019,-3.85113c2.7024,-0.98079 5.58325,-1.41706 8.42845,-1.8291c1.78049,-0.28599 8.23769,-0.44934 10.03028,-1.8958c1.1242,-0.90712 1.81055,-2.25199 2.75079,-3.34864c0.77016,-0.89828 1.91417,-1.54643 2.379,-2.63454c0.5941,-1.39069 0.29781,-3.02067 0.66371,-4.48801c0.40891,-1.63981 1.0847,-3.20096 1.63942,-4.7977c0.15007,-2.97124 0.34697,-5.94154 0.60516,-8.91065c0.51311,-5.90075 0.38353,-11.92655 1.26658,-17.74583h-0.40968v-3c0,-1.38071 1.11929,-2.5 2.5,-2.5c0.70878,0 1.34866,0.29495 1.80361,0.76881l2.01661,2.09418l-0.19725,0.18994l0.61166,0.38536c1.50558,6.98652 1.59364,13.52829 -0.10849,20.53418c-0.77618,3.19471 -2.10925,6.2508 -3.28358,9.34584c-1.29046,20.38987 0.34719,40.9185 -1.0133,61.32583c-0.21885,3.2691 -0.32873,6.54731 -0.32926,9.82373l-3.417,2.53074c0,0 -2.49862,0.08301 -2.58163,-2.41561z" fill="#000000" stroke="none" stroke-width="0.5"/></g></g></svg>