<svg version="1.1" xmlns="http://www.w3.org/2000/svg" xmlns:xlink="http://www.w3.org/1999/xlink" width="154" height="218" viewBox="0,0,154,218"><g transform="translate(-163,-71)"><g data-paper-data="{&quot;isPaintingLayer&quot;:true}" fill-rule="nonzero" stroke-linecap="butt" stroke-linejoin="miter" stroke-miterlimit="10" stroke-dasharray="" stroke-dashoffset="0" style="mix-blend-mode: normal"><path d="M164,288v-216h152v216z" fill="#66abff" stroke="#000000" stroke-width="2"/><path d="M226.91259,263.41961c2.48038,0.31258 2.1678,2.79296 2.1678,2.79296l-0.50534,2.25014c-0.83681,1.36945 -1.7483,2.69209 -2.7099,3.97968l0.20699,0.10349l-2.21185,4.42369c-0.40086,0.84561 -1.26228,1.43041 -2.26029,1.43041c-1.38071,0 -2.5,-1.11929 -2.5,-2.5v-4.99999v-0.00001c-0.00017,-14.28907 0.34898,-28.64658 -0.33239,-42.9207c-0.78426,-16.46939 -1.55577,-32.93853 -2.44389,-49.40267c-0.43247,-8.01714 0.06478,-16.76882 -1.31307,-24.66883c-0.71066,-4.07467 -2.47189,-8.28701 -3.78236,-12.21724c0,0 -0.79057,-2.37171 1.58114,-3.16228c2.37171,-0.79057 3.16228,1.58114 3.16228,1.58114c1.38707,4.16247 3.21214,8.62506 3.96459,12.93929c1.41298,8.10145 0.93681,17.03975 1.38016,25.25859c0.88869,16.47463 1.66073,32.95428 2.44549,49.43416c0.60708,12.77895 0.40102,25.62248 0.34861,38.42611c0.06747,-0.10251 0.13322,-0.20577 0.19677,-0.30999l-0.18772,-0.27018c0,0 0.31258,-2.48038 2.79296,-2.1678z" fill="#000000" stroke="none" stroke-width="0.5"/><path d="M274.48197,259.13606c-2.23607,-1.11803 -1.11803,-3.3541 -1.11803,-3.3541l0.81071,-1.48831c0.38934,-1.48936 0.4882,-3.08692 1.16801,-4.46809c0.73601,-1.49535 2.24767,-2.5128 3,-4c1.41209,-2.79139 2.32923,-8.04693 3.3045,-10.97272c1.67825,-5.03476 4.56314,-10.59112 4.3434,-15.91551c-0.03922,-0.95034 -0.14646,-7.6717 -0.62662,-8.91931c-0.27384,-0.71151 -1.22603,-0.93378 -1.69729,-1.53306c-0.60877,-0.77415 -0.72924,-1.93698 -1.50677,-2.54143c-0.66412,-0.51628 -1.62291,-0.56184 -2.46394,-0.54538c-2.39273,0.04683 -2.39744,2.09476 -4.32817,3.26961l-2,2c-0.45241,0.45241 -1.07741,0.73223 -1.76777,0.73223c-1.38071,0 -2.5,-1.11929 -2.5,-2.5c0,-0.52532 0.16203,-1.0128 0.43883,-1.41519l1.98104,-2.97156l0.09839,0.0656l0.07616,-0.29712c3.16808,-2.83772 3.46983,-5.93865 4.47999,-9.98716c1.75767,-7.05317 4.21956,-14.38786 4.93775,-21.64091c0.33035,-3.33626 -0.36672,-6.72598 0.00639,-10.05773c0.3057,-2.72979 2.07774,-5.22463 2.08871,-7.97147c0.00214,-0.53695 -0.47783,-1.34354 -1.00773,-1.25674c-1.07824,0.17662 -1.69893,1.41798 -2.69657,1.86351c-2.69826,1.20499 -5.85243,1.15587 -8.53639,2.39238c-7.43388,3.42482 -12.59339,9.60095 -20.76025,11.70174c0,0 -2.42536,0.60634 -3.0317,-1.81902c-0.60634,-2.42536 1.81902,-3.0317 1.81902,-3.0317c7.73621,-1.86664 12.81413,-8.13664 19.88076,-11.39226c1.40297,-0.64635 6.94953,-1.85318 8.82261,-2.51361c1.79741,-0.63375 3.45586,-2.60427 5.30343,-2.13649c8.71758,2.20721 3.65357,9.66588 3.08098,14.77179c-0.36934,3.29345 0.33296,6.64431 0.00639,9.94227c-0.74274,7.50094 -3.2446,15.06525 -5.06225,22.35909c-0.44047,1.75864 -0.81572,3.37984 -1.29475,4.90035c1.83881,0.04818 3.74617,0.4942 5.30928,1.45068c1.21224,0.74178 1.59913,2.35388 2.49323,3.45857c0.7077,0.87437 1.89158,1.41988 2.30271,2.46694c3.79692,9.66983 -0.42743,19.59782 -3.4455,28.65202c-1.04133,3.12399 -2.07472,8.59192 -3.53323,11.54044c-0.73896,1.49389 -2.24424,2.51453 -3,4c-0.54846,1.07803 -0.55466,2.35461 -0.83199,3.53191l-1.18929,2.51169c0,0 -1.11803,2.23607 -3.3541,1.11803z" fill="#000000" stroke="none" stroke-width="0.5"/></g></g></svg>