<svg version="1.1" xmlns="http://www.w3.org/2000/svg" xmlns:xlink="http://www.w3.org/1999/xlink" width="154.10001" height="218" viewBox="0,0,154.10001,218"><g transform="translate(-163,-71)"><g data-paper-data="{&quot;isPaintingLayer&quot;:true}" fill-rule="nonzero" stroke-linecap="butt" stroke-linejoin="miter" stroke-miterlimit="10" stroke-dasharray="" stroke-dashoffset="0" style="mix-blend-mode: normal"><path d="M164,288v-216h152v216z" fill="#09c600" stroke="#000000" stroke-width="2"/><path d="M317.10001,218.89999c0,2.5 -2.5,2.5 -2.5,2.5h-1c-9.333,0 -18.66565,0.00274 -27.99858,0.04091c-6.56638,0.02552 -13.39626,1.30336 -19.92391,0.93084c-2.35387,-0.13433 -5.54659,0.85717 -7.00242,-0.99737c-1.49268,-1.90148 0.0314,-4.86907 0.54241,-7.23182c0.96409,-4.45766 4.20718,-9.51547 6.06728,-13.68886c2.65807,-5.96376 3.83547,-12.22078 5.36541,-18.55908c2.98189,-12.35353 5.2576,-24.69467 7.45907,-37.2096c-0.01511,-7.80594 0.81736,-15.7718 -1.29983,-23.25104c-0.33435,-1.18112 -0.01705,-2.64316 -0.78985,-3.59691c-0.42151,-0.52021 -1.33482,0.19263 -2.00302,0.15011c-3.19,-0.20295 -6.38556,-0.51737 -9.58036,-0.41482c-8.95664,0.28748 -19.57855,3.30658 -27.5775,7.48764c-3.4133,1.78414 -6.69471,5.39035 -9.69697,7.79216c0,0 -1.95217,1.56174 -3.51391,-0.39043c-1.56174,-1.95217 0.39043,-3.51391 0.39043,-3.51391c3.22439,-2.57951 6.64613,-6.25914 10.30303,-8.20784c8.6675,-4.61877 20.18728,-7.83325 29.92942,-8.16487c3.44879,-0.1174 6.93505,-0.09629 10.34266,0.44783c1.53481,0.24508 3.45931,-0.15027 4.56704,0.93998c1.50852,1.4847 1.63982,3.90417 2.37243,5.88993c2.8752,7.7933 1.5525,17.03362 1.53789,25.26213c-2.19767,12.77091 -4.53946,25.35574 -7.58014,37.95286c-1.15666,4.79188 -1.95134,9.97313 -3.5435,14.63644c-1.61015,4.716 -4.14229,9.36528 -6.17464,13.91824c-0.60086,1.34607 -1.16289,2.71043 -1.80995,4.03491c-0.43004,0.88027 -2.08192,1.85287 -1.41875,2.57398c0.70334,0.76479 1.96858,-0.70747 2.99661,-0.85828c1.61824,-0.23739 3.26498,-0.20013 4.8975,-0.29976c5.05519,-0.3085 10.05748,-0.6107 15.12312,-0.63242c9.33974,-0.0382 18.67921,-0.04095 28.01902,-0.04095h1c0,0 2.5,0 2.5,2.5z" fill="#000000" stroke="none" stroke-width="0.5"/></g></g></svg>