<svg version="1.1" xmlns="http://www.w3.org/2000/svg" xmlns:xlink="http://www.w3.org/1999/xlink" width="155.10381" height="218" viewBox="0,0,155.10381,218"><g transform="translate(-163,-71)"><g data-paper-data="{&quot;isPaintingLayer&quot;:true}" fill-rule="nonzero" stroke-linecap="butt" stroke-linejoin="miter" stroke-miterlimit="10" stroke-dasharray="" stroke-dashoffset="0" style="mix-blend-mode: normal"><path d="M164,288v-216h152v216z" fill="#a300f5" stroke="#000000" stroke-width="2"/><path d="M226.91259,263.41961c2.48038,0.31258 2.1678,2.79296 2.1678,2.79296l-0.50534,2.25014c-0.83681,1.36945 -1.7483,2.69209 -2.7099,3.97968l0.20699,0.10349l-2.21185,4.42369c-0.40086,0.84561 -1.26228,1.43041 -2.26029,1.43041c-1.38071,0 -2.5,-1.11929 -2.5,-2.5v-4.99999v-0.00001c-0.00017,-14.28907 0.34898,-28.64658 -0.33239,-42.9207c-0.78426,-16.46939 -1.55577,-32.93853 -2.44389,-49.40267c-0.43247,-8.01714 0.06478,-16.76882 -1.31307,-24.66883c-0.71066,-4.07467 -2.47189,-8.28701 -3.78236,-12.21724c0,0 -0.79057,-2.37171 1.58114,-3.16228c2.37171,-0.79057 3.16228,1.58114 3.16228,1.58114c1.38707,4.16247 3.21214,8.62506 3.96459,12.93929c1.41298,8.10145 0.93681,17.03975 1.38016,25.25859c0.88869,16.47463 1.66073,32.95428 2.44549,49.43416c0.60708,12.77895 0.40102,25.62248 0.34861,38.42611c0.06747,-0.10251 0.13322,-0.20577 0.19677,-0.30999l-0.18772,-0.27018c0,0 0.31258,-2.48038 2.79296,-2.1678z" fill="#000000" stroke="none" stroke-width="0.5"/><path d="M318.09096,215.68757c0.21243,2.49096 -2.27853,2.70339 -2.27853,2.70339l-1.7738,0.15127c-10.68786,0.87308 -21.86971,5.04913 -31.87445,8.89624c-4.02838,1.54903 -8.0197,2.93665 -12.13038,4.25402c-1.78955,0.57351 -3.50227,1.74826 -5.38036,1.68355c-2.48418,-0.08559 -5.50132,-0.25566 -7.15065,-2.11528c-2.28076,-2.57156 2.2681,-8.15919 3.26409,-9.70297c2.43449,-7.40514 5.00045,-15.34086 6.35975,-23.0217c0.71404,-4.03477 0.28685,-8.6746 0.42939,-12.76467c0.23076,-6.62142 0.55855,-13.22186 0.40991,-19.84676c-0.11228,-5.00473 -0.27052,-9.60346 -1.05471,-14.54283c-0.44667,-2.81345 0.31365,-4.99742 -3.01541,-6.08306c-2.07781,-0.67759 -3.58918,0.90859 -5.13648,2.32661c0.48382,0.22888 0.94115,0.67036 1.21238,1.48404c0.79057,2.37171 -1.58114,3.16228 -1.58114,3.16228l-2.94464,0.98155c-0.2642,0.09499 -0.54902,0.14675 -0.84593,0.14675c-1.38071,0 -2.5,-1.11929 -2.5,-2.5c0,-0.41989 0.10352,-0.81561 0.28642,-1.16302l1.97751,-3.95502l0.02283,0.01142c0.0585,-0.11968 0.12011,-0.2381 0.18513,-0.35516c3.56865,-6.42481 11.97215,-6.99141 16.08267,-0.69012c0.21443,0.32872 2.00076,10.12243 2.07536,10.8774c0.98733,9.99203 0.1718,20.31344 -0.17693,30.32007c-0.14946,4.28869 0.25354,9.08255 -0.47961,13.31833c-1.41367,8.16745 -4.15778,16.62292 -6.80253,24.46513c-0.89164,1.35939 -1.70541,2.77317 -2.67492,4.07816c-0.23042,0.31015 -1.26573,0.61128 -0.89871,0.73204c1.77796,0.585 5.64029,-1.21215 6.77375,-1.59622c2.42256,-0.82088 4.88644,-1.52102 7.28934,-2.39778c12.17338,-4.44178 24.87119,-9.83625 37.85346,-10.98492l1.7738,-0.15127c0,0 2.49096,-0.21243 2.70339,2.27853z" fill="#000000" stroke="none" stroke-width="0.5"/></g></g></svg>