<svg version="1.1" xmlns="http://www.w3.org/2000/svg" xmlns:xlink="http://www.w3.org/1999/xlink" width="601.14631" height="140.87798" viewBox="0,0,601.14631,140.87798"><g transform="translate(-33.03279,-12.79233)"><g data-paper-data="{&quot;isPaintingLayer&quot;:true}" fill-rule="nonzero" stroke-linecap="butt" stroke-linejoin="miter" stroke-miterlimit="10" stroke-dasharray="" stroke-dashoffset="0" style="mix-blend-mode: normal"><path d="M459.23719,71.93532v-33.25067h147.13422v33.25067z" fill-opacity="0.76078" fill="#000000" stroke="#ff0000" stroke-width="1.5"/><text transform="translate(488.46077,58.93212) scale(0.34734,0.34734)" font-size="40" xml:space="preserve" fill-opacity="0.60784" fill="#00ffe1" fill-rule="nonzero" stroke="none" stroke-width="1" stroke-linecap="butt" stroke-linejoin="miter" stroke-miterlimit="10" stroke-dasharray="" stroke-dashoffset="0" font-family="Sans Serif" font-weight="normal" text-anchor="start" style="mix-blend-mode: normal"><tspan x="0" dy="0">Wer ist dran.</tspan></text><path d="M396.48275,33.89535c0,2.5 -2.5,2.5 -2.5,2.5h-1.66254c-4.19194,0 -10.44702,1.21404 -14.12638,-1.46667c-1.5371,1.47617 -3.31904,3.15542 -3.98426,3.12291c-6.6363,-0.32433 -6.60298,-8.11614 -8.34355,-12.44029l-0.0007,-0.07717l-0.02355,0.00785l-0.81282,-2.43844c-0.09499,-0.2642 -0.14675,-0.54902 -0.14675,-0.84593c0,-1.38071 1.11929,-2.5 2.5,-2.5c0.48518,0 0.93808,0.1382 1.32148,0.3774l4.1211,2.47266l-0.19025,0.31709c2.48892,1.16542 4.82319,2.59803 6.8678,4.54494c2.12704,-1.3366 4.38896,-2.47564 6.55129,-3.75772c4.0691,-2.41263 7.93378,-5.35636 12.15446,-7.52129c7.59307,-3.89475 16.55394,-3.08321 24.85661,-3.08321c8.0285,0 16.44643,-0.72598 24.43223,0.02579c4.95056,0.46603 9.83802,1.27634 14.83534,1.64365c15.44088,1.13491 30.00164,3.06652 43.49522,11.15584c0,0 2.14373,1.28624 0.85749,3.42997c-1.28624,2.14373 -3.42997,0.8575 -3.42997,0.8575c-12.80442,-7.6894 -26.64535,-9.38048 -41.29399,-10.45711c-5.03032,-0.36971 -9.95522,-1.17381 -14.93725,-1.65228c-7.81872,-0.75091 -16.09536,-0.00335 -23.95907,-0.00335c-5.85516,0 -12.7724,-0.76348 -18.49347,0.75488c-4.11881,1.09313 -8.18822,4.13634 -11.77326,6.35642c-3.4081,2.1105 -7.0697,4.00411 -10.41406,6.26521c0.36208,-0.00437 0.75379,-0.07851 1.09785,-0.06991c2.94525,0.07359 5.89231,-0.01873 8.83847,-0.01873h1.66254c0,0 2.5,0 2.5,2.5zM375.48732,30.51432c-1.23415,-1.04649 -2.55457,-1.81348 -3.74872,-2.78263c0.3401,1.3396 0.65718,2.68746 1.08369,3.99946c0.17378,0.53457 0.48614,1.46379 1.03283,1.33302c0.66006,-0.15789 0.50604,-1.28472 0.94149,-1.80529c0.21722,-0.25968 0.44877,-0.50705 0.69071,-0.74457z" fill-opacity="0.60784" fill="#ff0000" stroke="none" stroke-width="0.5"/><path d="M461.42293,152.92031v-33.25067h147.13422v33.25067z" fill-opacity="0.76078" fill="#000000" stroke="#ff0000" stroke-width="1.5"/><text transform="translate(475.72233,137.78612) scale(0.29673,0.29673)" font-size="40" xml:space="preserve" fill-opacity="0.60784" fill="#00ffe1" fill-rule="nonzero" stroke="none" stroke-width="1" stroke-linecap="butt" stroke-linejoin="miter" stroke-miterlimit="10" stroke-dasharray="" stroke-dashoffset="0" font-family="Sans Serif" font-weight="normal" text-anchor="start" style="mix-blend-mode: normal"><tspan x="0" dy="0">Die Karten der Spieler</tspan></text><path d="M465.08912,144.82176c0,2.5 -2.5,2.5 -2.5,2.5l-2.81431,0c-13.16782,-0.00059 -25.14738,-0.9672 -36.15307,-8.90193c-1.05223,-0.75862 -2.35043,-1.23402 -3.20045,-2.21389c-3.35619,-3.86889 -2.25954,-4.78731 -3.39885,-9.49848c-0.64401,-2.66306 -2.29314,-5.0254 -2.85943,-7.70606c-0.43266,-2.04809 -0.16303,-4.24471 -0.84991,-6.2221c0,0 -0.36451,-1.09352 0.14402,-2.04302c-0.19553,0.00007 -0.39105,0.00011 -0.58657,0.00011c-12.61101,0 -25.22201,0 -37.83302,0c-6.57316,0 -13.29127,-0.39584 -19.8511,-0.00444c-10.60643,0.63285 -21.09134,2.81077 -31.74365,2.8187c-7.41162,0 -14.72967,0.80486 -22.13511,0.88075c-23.15562,0.23728 -46.32149,0.05734 -69.47839,0.05734c-12.2898,0 -24.42948,0.57877 -36.63713,1.63576c-6.80827,0.58949 -13.67706,-0.17698 -20.48223,0.23784c-9.78506,0.59646 -19.3769,0.94065 -29.19396,0.94065c-11.88243,0 -23.76485,0 -35.64728,0c-6.22277,0 -12.88552,0.65737 -19.06718,-0.01873c-11.26744,-1.23235 -22.23724,-3.70048 -33.71199,-3.74578c-2.84753,-0.56284 -5.62797,-1.47557 -8.50189,-1.88274c-3.31842,-0.47015 -7.4241,-0.17684 -10.38973,-2.23081c-5.06356,-3.50698 -4.9273,-7.84364 -4.93802,-13.38366c-0.00903,-4.66874 -0.51845,-9.74101 0.01873,-14.37675c0.58121,-5.01566 2.27905,-10.72132 3.86191,-15.49449l-0.12829,-1.0856c0,0 0,-2.5 2.5,-2.5c2.5,0 2.5,2.5 2.5,2.5l-0.12829,2.66674c-1.49468,4.45849 -3.10496,9.83588 -3.64278,14.52427c-0.50943,4.44088 0.02796,9.29332 0.01873,13.76584c-0.00683,3.31061 -0.73662,7.07476 2.56667,9.13041c2.45547,1.52805 5.70701,1.1379 8.37199,1.52153c2.83399,0.40796 5.57751,1.3009 8.38366,1.86961c11.50177,-0.05287 22.54324,2.48371 33.83022,3.75891c5.96212,0.6736 12.45,-0.01873 18.45627,-0.01873c11.88243,0 23.76485,0 35.64728,0c9.74311,0 19.25676,-0.35248 28.96739,-0.93552c6.73548,-0.4044 13.53905,0.36617 20.27493,-0.22412c12.34902,-1.08218 24.63868,-1.65462 37.071,-1.65462c24.6994,0 49.6663,1.04587 74.33644,-0.10492c5.80218,-0.27065 11.45974,-0.83317 17.27707,-0.83317c10.54538,0.0083 20.94312,-2.18315 31.44584,-2.80982c6.65949,-0.39735 13.47608,-0.00444 20.1489,-0.00444c12.61101,0 25.22201,0 37.83302,0c26.06899,0 52.23499,-0.6569 78.29359,0.01677c4.18166,0.1081 8.23229,0.93256 12.39121,0.92132c30.12195,0 60.2439,0 90.36585,0c8.26819,0 16.53915,-0.06542 24.80675,0.03635c1.73232,0.02133 3.47168,-0.07161 5.19658,0.08999c1.52139,0.14253 3.0029,0.56912 4.51031,0.81941c0.32424,0.05384 0.85843,0.39717 0.98171,0.09248c0.17909,-0.44262 -0.41816,-0.87803 -0.47189,-1.35248c-0.21113,-1.86426 0,-3.75235 0,-5.62852c0,-7.39604 1.03882,-15.68155 -3.33247,-22.06541c0,0 -1.38675,-2.08013 0.69338,-3.46688c2.08013,-1.38675 3.46688,0.69338 3.46688,0.69338c4.90496,7.5132 4.17222,16.21439 4.17222,24.83891c0,2.05098 0.76629,8.394 -0.47189,9.90455c-2.79791,3.41337 -6.75319,1.43005 -10.00044,1.14407c-9.72001,-0.85603 -19.78543,-0.10585 -29.55112,-0.10585c-30.12195,0 -60.2439,0 -90.36585,0c-4.20736,-0.00987 -8.28528,-0.8181 -12.50843,-0.92269c-24.36901,-0.60352 -48.8245,-0.09021 -73.21233,-0.02253c0.15451,0.26668 0.22192,0.46891 0.22192,0.46891c0.71527,2.21641 0.55921,4.62946 1.02626,6.91111c0.28079,1.37172 2.35714,5.60926 2.76909,7.30332c0.70665,2.90597 0.1232,5.12521 2.22967,7.38708c0.653,0.70117 1.64546,0.98569 2.42807,1.53846c10.24792,7.23824 21.06333,7.98308 33.26532,7.98363l2.8142,0c0,0 2.5,0 2.5,2.5z" fill-opacity="0.60784" fill="#ff0000" stroke="none" stroke-width="0.5"/></g></g></svg>