<svg version="1.1" xmlns="http://www.w3.org/2000/svg" xmlns:xlink="http://www.w3.org/1999/xlink" width="377.02442" height="238.67716" viewBox="0,0,377.02442,238.67716"><g transform="translate(-131.66468,-138.22197)"><g data-paper-data="{&quot;isPaintingLayer&quot;:true}" fill-rule="nonzero" stroke-linecap="butt" stroke-linejoin="miter" stroke-miterlimit="10" stroke-dasharray="" stroke-dashoffset="0" style="mix-blend-mode: normal"><text transform="translate(271.00205,299.62829) scale(0.5,0.5)" font-size="40" xml:space="preserve" fill="#000000" fill-rule="nonzero" stroke="none" stroke-width="1" stroke-linecap="butt" stroke-linejoin="miter" stroke-miterlimit="10" stroke-dasharray="" stroke-dashoffset="0" font-family="Sans Serif" font-weight="normal" text-anchor="start" style="mix-blend-mode: normal"><tspan x="0" dy="0"> </tspan></text><text transform="translate(193.74011,272.88316) scale(0.5,0.5)" font-size="40" xml:space="preserve" fill="#ffffff" fill-rule="nonzero" stroke="none" stroke-width="1" stroke-linecap="butt" stroke-linejoin="miter" stroke-miterlimit="10" stroke-dasharray="" stroke-dashoffset="0" font-family="Sans Serif" font-weight="normal" text-anchor="start" style="mix-blend-mode: normal"><tspan x="0" dy="0"> </tspan></text><path d="M132.41468,376.14913v-102.76418h375.17081v102.76418z" fill-opacity="0.76078" fill="#000000" stroke="#ff0000" stroke-width="1.5"/><path d="M357.39135,217.91592v-75.23603h46.83106v75.23603z" fill-opacity="0.53725" fill="#00ffff" stroke="#00d0ff" stroke-width="2"/><path d="M438.66685,300.5996c0,2.5 -2.5,2.5 -2.5,2.5h-0.65782c-4.90886,-0.02504 -10.74429,2.84134 -15.60268,1.27054c-1.78858,-0.57828 -4.07795,-0.94998 -5.01454,-2.57977c-1.3979,-2.43254 -0.60547,-3.74236 0.33575,-5.0724c-0.18344,-2.00934 0.02027,-4.12405 0.02027,-5.32787c0.01176,-1.84369 0.21727,-3.70192 0.65782,-5.49251v-2.40135v0c0,-1.38071 1.11929,-2.5 2.5,-2.5c1.18975,0 2.18539,0.83109 2.43804,1.9444l0.64514,2.58056l-0.07705,0.01926c0.04613,0.09283 0.0905,0.18668 0.13297,0.28162c0.39966,0.89364 0.01544,1.95782 0.01873,2.93675c0.00172,0.51219 0.00472,2.30148 -0.00561,3.87546c0.09394,-0.10581 0.17019,-0.1909 0.22173,-0.25089c3.89106,-4.52881 8.13973,-8.79559 11.70133,-13.63804c3.40162,-4.62494 7.16478,-9.4013 9.72914,-14.59487c1.46083,-2.95862 2.39954,-6.15008 3.7407,-9.16483c3.03262,-6.81693 6.80078,-13.31775 7.37255,-20.91058c0.35738,-4.40847 0.79461,-9.05681 0.40602,-13.48343c-0.68336,-7.78442 -6.68915,-17.70168 -13.36049,-21.84085c-6.75248,-4.18951 -14.82345,-4.38236 -22.2539,-6.23997c0,0 -2.42536,-0.60634 -1.81902,-3.0317c0.60634,-2.42536 3.0317,-1.81902 3.0317,-1.81902c7.98557,1.99639 16.54612,2.3611 23.79367,6.91648c7.95103,4.99755 14.71396,16.22485 15.5837,25.52236c0.44102,4.71455 -0.02092,9.68098 -0.39787,14.37807c-0.69936,8.21386 -4.49918,15.14803 -7.78802,22.54093c-2.83698,6.37717 -5.10218,12.56559 -9.30791,18.25609c-3.33613,4.51391 -7.24385,8.57994 -10.63586,13.02887c-2.47378,3.24459 -4.882,7.23943 -7.99194,9.98778c-0.39189,0.34632 -0.77876,0.76482 -1.17187,1.18975c0.20982,-0.03857 0.41165,-0.06399 0.59888,-0.06517c4.26886,-0.02704 8.22935,-1.29759 12.49863,-1.31564h0.65782c0,0 2.5,0 2.5,2.5z" fill-opacity="0.60784" fill="#ff0000" stroke="none" stroke-width="0.5"/><text transform="translate(414.12896,271.11777) scale(0.23577,0.2584)" font-size="40" xml:space="preserve" fill="#ffffff" fill-rule="nonzero" stroke="none" stroke-width="1" stroke-linecap="butt" stroke-linejoin="miter" stroke-miterlimit="10" stroke-dasharray="" stroke-dashoffset="0" font-family="Sans Serif" font-weight="normal" text-anchor="start" style="mix-blend-mode: normal"><tspan x="0" dy="0">Klicken zu fortfahren</tspan></text><path d="M284.36728,215.57767v-70.70387h46.83106v70.70387z" fill-opacity="0.53725" fill="#00ffff" stroke="#00d0ff" stroke-width="2"/><path d="M327.21907,231.93009c-1.76777,1.46099 -3.53553,0 -3.53553,0l-1.1399,-0.99881c-1.31203,-1.66588 -3.40164,-2.81094 -5.07943,-4.23509c-2.45841,-2.08677 -4.37243,-4.73753 -6.04119,-7.27416c-0.83803,-1.27387 -1.64558,-2.56433 -2.34954,-3.89246c-0.14283,-0.26947 -0.2695,-0.54634 -0.3759,-0.82829c-0.17895,0.41853 -0.3895,0.82871 -0.61711,1.23345c0.79322,0.72544 1.10747,2.12206 1.58128,3.06131c1.12565,2.23141 1.4466,4.69837 2.52056,6.94711c0.126,12.4504 0.0458,24.90343 0.0458,37.35428c0,4.86668 -1.00351,10.57251 -0.04511,15.33951c0.48697,2.42215 2.70044,4.43614 3.31015,6.83923c0.31541,1.24314 0.03007,2.54022 0.04511,3.81034c0,0 0,2.06614 -2.5,2.06614c-2.5,0 -2.5,-2.06614 -2.5,-2.06614c0.01504,-1.00963 0.30047,-2.04149 0.04511,-3.02889c-0.50849,-1.96623 -2.89302,-4.82685 -3.31015,-6.83923c-1.04091,-5.02173 -0.04511,-10.99435 -0.04511,-16.12095c0,-12.18795 -0.10351,-24.37962 0.0458,-36.5669c-0.53206,-1.06431 -1.19246,-2.09075 -1.59619,-3.19292c-0.11995,-0.32746 -0.24549,-0.65761 -0.3622,-0.99011c-2.21075,3.71338 -5.25601,6.79813 -8.52501,9.89147l-2.42321,2.67023c-0.45492,0.51277 -1.18914,0.8457 -2.01746,0.8457c-1.38071,0 -2.5,-0.92504 -2.5,-2.06614c0,-0.34702 0.10352,-0.67407 0.28642,-0.96119l2.21358,-3.65885l0.01851,0.00764c0.01281,-0.03241 0.0258,-0.06479 0.03899,-0.09713c0.5452,-1.33732 1.81689,-2.38978 2.72597,-3.58434c2.43719,-3.20258 5.32351,-6.39469 7.41438,-9.76194c0.60185,-0.96924 3.14636,-7.10383 5.09498,-7.23288c2.06385,-0.13669 3.62559,1.75089 5.03961,3.00083c0.68629,0.60665 0.60369,1.58797 1.01061,2.34733c0.95936,1.79028 3.19903,5.26036 4.52985,6.88186c2.51124,3.05976 5.99455,4.78261 8.48116,7.80903l0.51518,0.36903c0,0 1.76777,1.46099 0,2.92196z" fill="#ff0000" stroke="none" stroke-width="0.5"/><path d="M189.06479,228.84104c-1.42816,2.05192 -3.48008,0.62375 -3.48008,0.62375l-3.80267,-2.66566c-0.21556,-0.08637 -2.05169,-0.8531 -3.24573,-1.26212c-0.5221,0.07107 -1.02263,0.1457 -1.50544,0.22633c-0.67001,4.81131 -1.01543,10.25543 0.24871,14.69444c2.24904,7.89746 9.25696,12.96958 14.37879,18.84561c1.99134,2.28457 3.57784,4.89263 5.3637,7.34117c0,0 1.47318,2.01984 -0.54666,3.49302c-2.01984,1.47318 -3.49302,-0.54666 -3.49302,-0.54666c-1.70949,-2.34383 -3.21279,-4.85202 -5.12234,-7.03594c-5.67298,-6.48812 -12.90341,-11.99866 -15.38928,-20.72775c-1.12936,-3.96573 -1.18513,-8.56334 -0.80589,-12.98328c-0.64199,0.40424 -1.30939,0.74917 -2.0285,0.97179c-0.02606,0.00807 -0.05214,0.01606 -0.07823,0.02399l0.00538,0.01151l-4.48196,2.09451c-0.3335,0.16483 -0.70906,0.25746 -1.10625,0.25746c-1.38071,0 -2.5,-1.11929 -2.5,-2.5c0,-0.6908 0.28018,-1.31616 0.7331,-1.76864l2.08808,-2.08618l0.06202,0.06207l0.0964,-0.20729c2.86528,-2.01188 5.40137,-3.2397 8.28572,-4.06639l0.88136,-1.52371c0,0 1.56255,-1.95152 3.51407,-0.38898c0.23097,0.18493 0.41271,0.37531 0.55365,0.56726c1.97656,0.11196 4.91145,1.47376 6.47382,2.11136l4.2775,2.95825c0,0 2.05192,1.42816 0.62375,3.48008z" fill="#ff0000" stroke="none" stroke-width="0.5"/><text transform="translate(159.22338,312.46085) scale(0.28124,0.28124)" font-size="40" xml:space="preserve" fill-opacity="0.60784" fill="#00ffe1" fill-rule="nonzero" stroke="none" stroke-width="1" stroke-linecap="butt" stroke-linejoin="miter" stroke-miterlimit="10" stroke-dasharray="" stroke-dashoffset="0" font-family="Sans Serif" font-weight="normal" text-anchor="start" style="mix-blend-mode: normal"><tspan x="0" dy="0">Wenn eine Karte ist spielbar, </tspan><tspan x="0" dy="48px">du kannst eine Karte spielen</tspan></text><text transform="translate(335.57841,322.01514) scale(0.28124,0.28124)" font-size="40" xml:space="preserve" fill-opacity="0.60784" fill="#00ffe1" fill-rule="nonzero" stroke="none" stroke-width="1" stroke-linecap="butt" stroke-linejoin="miter" stroke-miterlimit="10" stroke-dasharray="" stroke-dashoffset="0" font-family="Sans Serif" font-weight="normal" text-anchor="start" style="mix-blend-mode: normal"><tspan x="0" dy="0">Ob eine Karte ist nicht spielbar,</tspan><tspan x="0" dy="48px">du eine Karte spielen kannst. </tspan></text><text transform="translate(450.00175,259.31751) scale(0.23577,0.2584)" font-size="40" xml:space="preserve" fill="#ffffff" fill-rule="nonzero" stroke="none" stroke-width="1" stroke-linecap="butt" stroke-linejoin="miter" stroke-miterlimit="10" stroke-dasharray="" stroke-dashoffset="0" font-family="Sans Serif" font-weight="normal" text-anchor="start" style="mix-blend-mode: normal"><tspan x="0" dy="0">(1/4)</tspan></text><path d="M148.97708,218.86614v-79.39417h50.04587v79.39417z" fill-opacity="0.52157" fill="#00ffff" stroke-opacity="0.1451" stroke="#ff0000" stroke-width="2.5"/><text transform="translate(168.28002,185.72605) scale(0.5,0.5)" font-size="40" xml:space="preserve" fill="#00ffff" fill-rule="nonzero" stroke="none" stroke-width="1" stroke-linecap="butt" stroke-linejoin="miter" stroke-miterlimit="10" stroke-dasharray="" stroke-dashoffset="0" font-family="Sans Serif" font-weight="normal" text-anchor="start" style="mix-blend-mode: normal"><tspan x="0" dy="0">+</tspan></text></g></g></svg>