<svg version="1.1" xmlns="http://www.w3.org/2000/svg" xmlns:xlink="http://www.w3.org/1999/xlink" width="154" height="218" viewBox="0,0,154,218"><g transform="translate(-163,-71)"><g data-paper-data="{&quot;isPaintingLayer&quot;:true}" fill-rule="nonzero" stroke-linecap="butt" stroke-linejoin="miter" stroke-miterlimit="10" stroke-dasharray="" stroke-dashoffset="0" style="mix-blend-mode: normal"><path d="M164,288v-216h152v216z" fill="#a300f5" stroke="#000000" stroke-width="2"/><path d="M214.10004,219.92069l-0.50831,-2.52069c9.15143,-0.01806 18.83362,-1.99099 27.17178,-5.90194c8.03622,-3.76934 15.59977,-9.72914 23.13788,-14.43237c0.77564,-0.98542 1.87659,-1.78585 2.32692,-2.95626c1.84129,-4.78564 -6.95165,-9.03831 -9.99238,-11.11438c-9.8145,-6.70086 -21.39803,-11.85894 -33.50432,-11.59852c-4.14851,0.08924 -8.38165,2.08944 -12.39273,2.89179c-1.71268,0.3426 -3.7312,1.58393 -5.20064,0.63978c-1.32806,-0.85331 -0.60446,-3.10099 -1.00594,-4.62765c-0.91876,-3.49363 -1.08562,-6.61229 -1.63275,-10.22806c-1.46856,-5.33943 -1.41828,-9.84882 -1.3647,-15.36352c0.0501,-5.15648 -0.16296,-10.29622 1.02567,-15.35731c0.50678,-2.15783 0.33426,-4.77328 1.85532,-6.38557c0.87613,-0.92867 9.22262,-0.44495 9.90212,-0.37547c6.21994,0.63593 11.36869,3.63041 17.36002,5.01297c7.55777,1.74403 15.33567,1.97297 22.92838,3.87115c0,0 2.42536,0.60634 1.81902,3.0317c-0.60634,2.42536 -3.0317,1.81902 -3.0317,1.81902c-7.56459,-1.89115 -15.30345,-2.11077 -22.83996,-3.84989c-4.1537,-0.95851 -8.01316,-3.20202 -12.1654,-4.15145c-3.0569,-0.69897 -6.24767,-0.55647 -9.3621,-0.92192c-0.51311,-0.06021 -1.1956,-1.02217 -1.44203,-0.56809c-0.54406,1.00251 0.01965,2.28654 -0.10585,3.42024c-0.17506,1.58149 -0.64997,3.12236 -0.79377,4.707c-0.70063,7.72073 -1.00051,16.63385 1.10424,24.06476c0.37165,2.47368 0.2634,5.00686 0.67891,7.47354c0.17046,1.01193 0.95814,1.89782 0.9984,2.91659c1.49617,-0.67434 3.15669,-0.93321 4.7542,-1.31977c6.53791,-1.58203 12.48197,-1.90921 19.16431,-0.75449c10.98594,1.89838 21.27482,7.92667 30.11537,14.55813c1.60903,1.20696 7.07741,4.94878 7.8097,7.04329c2.11141,6.0391 -0.49133,7.5071 -3.61107,11.79101c-7.85351,5.08014 -15.94361,11.31857 -24.41187,15.29055c-8.63949,4.0523 -18.54507,6.15412 -28.06091,6.35923c-0.13995,0.01592 -0.22584,0.01592 -0.22584,0.01592l-0.00229,-0.01137c-0.33032,0.00607 -0.66015,0.00985 -0.98943,0.01135z" fill="#000000" stroke="none" stroke-width="0.5"/></g></g></svg>