<svg version="1.1" xmlns="http://www.w3.org/2000/svg" xmlns:xlink="http://www.w3.org/1999/xlink" width="154" height="218" viewBox="0,0,154,218"><g transform="translate(-163,-71)"><g data-paper-data="{&quot;isPaintingLayer&quot;:true}" fill-rule="nonzero" stroke-linecap="butt" stroke-linejoin="miter" stroke-miterlimit="10" stroke-dasharray="" stroke-dashoffset="0" style="mix-blend-mode: normal"><path d="M164,288v-216h152v216z" fill="#a300f5" stroke="#000000" stroke-width="2"/><path d="M262.8556,222.91564c0.27994,-0.14061 0.56118,-0.28242 0.84393,-0.42528c4.43804,-2.22282 7.65797,-5.05905 11.47082,-8.22312c2.463,-2.0439 5.30337,-3.69696 7.40933,-6.1071c2.60595,-2.98235 3.85554,-6.62969 4.95958,-10.3023c1.97026,-6.55411 3.33992,-11.91713 3.30279,-18.80383c-0.02936,-5.44661 0.33088,-11.28623 -2.25921,-16.32318c-3.43271,-6.67557 -9.9176,-11.21664 -15.49005,-15.93305c-1.9983,-1.44412 -5.75495,-4.24547 -7.91982,-5.46773c-3.94242,-2.22584 -8.63458,-3.46629 -12.40837,-5.96982c-5.74834,-3.81344 -10.88072,-8.87148 -15.43303,-14.16388c-0.45947,1.21692 -1.878,1.50458 -1.878,1.50458c-2.33244,0.473 -4.8382,0.39653 -7.00487,1.38119c-0.79273,0.36026 -1.54832,0.78559 -2.2705,1.26565c10.43205,28.98363 21.62766,57.57967 32.93785,86.23421c1.4608,3.7013 2.63061,7.50735 3.73955,11.33366zM224.46826,120.57398c0.68757,-0.41731 1.40169,-0.79971 2.14482,-1.14272c2.42555,-1.11957 5.22859,-1.09964 7.84677,-1.63058c0,0 0.01474,-0.00299 0.04217,-0.00736c-0.08578,-0.10649 -0.17134,-0.21298 -0.25667,-0.31948c-2.88967,-3.60644 -5.65867,-7.29723 -9.0516,-10.46723c-0.08087,-0.07555 -1.88429,-1.70668 -2.56637,-1.56893c-0.80623,0.16283 -1.47292,1.84204 -1.53272,2.3297c-0.44819,3.65515 1.8535,8.21699 2.93345,11.57009c0.14656,0.41225 0.29328,0.82442 0.44016,1.23651zM258.32312,225.10237c-1.14614,-3.94202 -2.35063,-7.86562 -3.85796,-11.68483c-11.08689,-28.09416 -22.06786,-56.13086 -32.32602,-84.53131c-3.43618,3.77443 -6.02846,8.64474 -8.47039,12.67533c-6.5514,10.81362 -12.60184,21.74497 -16.64907,33.80035c-1.33844,3.98677 -2.20846,8.19021 -3.33574,12.24547c-0.05722,2.48295 -0.7599,5.0211 -0.22899,7.44729c2.28074,10.42271 10.00387,18.08887 18.69305,23.57022c10.23835,6.4586 21.09858,11.8589 33.6683,10.24764c4.62079,-0.59232 8.55958,-1.98108 12.50681,-3.77015zM220.30236,123.77498c-0.33754,-0.94418 -0.67425,-1.88878 -1.0101,-2.83383c-1.3304,-4.13299 -4.00079,-9.57234 -3.11772,-14.06399c0.93736,-4.76779 4.81843,-7.48751 9.4661,-5.65982c3.24364,1.27556 5.85677,5.00706 8.04948,7.55939c4.73088,5.50678 8.85805,11.43288 14.32879,16.28881c8.48449,7.53098 18.99099,11.16522 28.15533,17.79464c6.19329,5.23421 13.1336,10.27034 16.91149,17.69717c2.92638,5.75288 2.72759,12.24515 2.75626,18.47169c0.0339,7.36289 -1.38109,13.2822 -3.51766,20.27898c-1.33163,4.36079 -2.8929,8.60962 -5.97952,12.14205c-0.17257,0.19749 -7.60003,6.34832 -7.98148,6.66486c-4.10282,3.4047 -7.64266,6.41104 -12.40893,8.8381c-0.5703,0.28816 -1.13601,0.57229 -1.69854,0.85148c1.47282,5.1313 3.01222,10.23439 5.17234,15.1058c0.70713,0.28796 1.72886,0.99498 1.49322,2.64513c-0.35341,2.47489 -2.8283,2.12148 -2.8283,2.12148l-2.68448,-1.52882c-2.42324,-5.21019 -4.09732,-10.68799 -5.68977,-16.19862c-4.19088,1.85206 -8.41641,3.27934 -13.27676,3.88371c-13.74552,1.70923 -25.72649,-3.8621 -36.96587,-10.98203c-9.86685,-6.25045 -18.48224,-15.09939 -20.95136,-26.96329c-0.61192,-2.94023 0.12165,-6.00533 0.21216,-9.00719c4.60872,-17.34227 11.37368,-32.58987 20.65533,-47.90998c3.1365,-5.17704 6.38839,-10.94001 10.90999,-15.19573z" fill="#000000" stroke="none" stroke-width="0.5"/></g></g></svg>