<svg version="1.1" xmlns="http://www.w3.org/2000/svg" xmlns:xlink="http://www.w3.org/1999/xlink" width="154" height="218" viewBox="0,0,154,218"><g transform="translate(-163,-71)"><g data-paper-data="{&quot;isPaintingLayer&quot;:true}" fill-rule="nonzero" stroke-linecap="butt" stroke-linejoin="miter" stroke-miterlimit="10" stroke-dasharray="" stroke-dashoffset="0" style="mix-blend-mode: normal"><path d="M164,288v-216h152v216z" fill="#a300f5" stroke="#000000" stroke-width="2"/><path d="M226.10001,84.89999c0,-2.5 2.5,-2.5 2.5,-2.5l3.07043,0.00099c5.8091,0.33261 9.63443,1.07187 14.77289,3.8854c5.39238,2.99862 11.01532,6.15957 15.39096,10.58761c4.84113,4.8991 8.46746,10.71645 12.16487,16.46822c2.641,4.10838 6.02178,8.49738 8.01097,12.9621c2.81261,6.3129 2.48232,12.86896 4.15456,19.3323c0.42035,1.62466 1.43235,3.05482 1.86536,4.67615c2.12397,7.95285 0.1128,16.86835 -2.64045,24.35085c-4.07777,10.98164 -10.82545,20.56497 -15.49466,31.22796c-1.127,2.57371 -1.86522,6.71861 -3.07134,9.15104c-2.04229,4.11879 -5.80963,7.92528 -8.44468,11.68972c-4.80306,6.86165 -9.00809,14.90813 -15.57129,20.32939c-5.25544,4.34104 -12.25159,7.9486 -18.81443,9.30913c-9.02886,1.78401 -15.88266,0.56107 -23.73007,-4.35834c-1.87118,-1.17301 -4.56746,-2.81474 -5.78975,-4.7982c-3.61479,-5.86582 -3.37337,-13.79809 -3.37337,-20.36396c0,-14.68766 -1.47172,-30.23791 2.08002,-44.59458c0.90929,-4.54644 1.60344,-9.79534 3.06216,-14.18688c1.42733,-4.29704 4.50466,-8.63706 6.8,-12.50133c1.70113,-2.8639 2.72418,-6.09534 4.41944,-8.96271c0.1961,-0.33168 5.98523,-7.00208 6.13854,-7.20509c3.88001,-5.13783 6.32207,-12.03698 10.78953,-16.6584c2.7136,-2.80711 5.7589,-3.77722 9.00591,-5.68782c3.00073,-1.76569 6.11505,-3.41169 9.41383,-4.52528c0,0 2.37171,-0.79057 3.16228,1.58114c0.79057,2.37171 -1.58114,3.16228 -1.58114,3.16228c-2.97452,0.97721 -5.76003,2.49708 -8.45592,4.08921c-2.26758,1.33919 -6.02273,2.83907 -7.94127,4.84651c-4.27769,4.47589 -6.64624,11.22851 -10.39353,16.19277c-1.80215,2.38742 -4.35791,4.20902 -5.86146,6.79491c-1.66664,2.86636 -2.70613,6.07017 -4.39569,8.92308c-2.11753,3.57557 -5.08372,7.63173 -6.38488,11.61289c-1.38205,4.22867 -2.0258,9.25295 -2.899,13.61893c-2.73218,10.91463 -1.9588,22.33339 -1.95881,33.50036c-0.00001,8.47245 -1.84163,19.95195 2.62662,27.7353c1.21922,2.12379 6.27904,4.75084 8.18634,5.60682c2.25413,1.01163 4.61316,1.94574 7.06672,2.23651c3.68846,0.43712 5.41211,-0.22723 9.03292,-0.96103c13.09717,-2.50581 21.3797,-12.95444 28.4485,-23.4241c3.35548,-4.96983 8.279,-9.93403 10.91528,-15.2865c1.37283,-2.78726 1.6836,-6.00233 2.92866,-8.84896c4.62838,-10.582 11.36755,-20.08364 15.39601,-30.98193c2.42111,-6.48535 4.38176,-14.52166 2.46888,-21.43926c-0.44114,-1.59531 -1.44065,-3.00449 -1.84854,-4.60861c-1.57659,-6.20028 -1.19235,-12.51042 -3.87849,-18.53946c-1.88639,-4.234 -5.14662,-8.39972 -7.64965,-12.29316c-3.51428,-5.46643 -6.93718,-10.99198 -11.52128,-15.66344c-4.00678,-4.08313 -9.302,-6.9754 -14.25688,-9.72539c-4.41497,-2.4947 -7.46392,-2.97958 -12.48554,-3.25817l-2.92957,0.00099c0,0 -2.5,0 -2.5,-2.5z" fill="#000000" stroke="none" stroke-width="0.5"/></g></g></svg>