<svg version="1.1" xmlns="http://www.w3.org/2000/svg" xmlns:xlink="http://www.w3.org/1999/xlink" width="170.83141" height="218" viewBox="0,0,170.83141,218"><g transform="translate(-156.96219,-71)"><g data-paper-data="{&quot;isPaintingLayer&quot;:true}" fill-rule="nonzero" stroke-linecap="butt" stroke-linejoin="miter" stroke-miterlimit="10" stroke-dasharray="" stroke-dashoffset="0" style="mix-blend-mode: normal"><path d="M164,288v-216h152v216z" fill="#19ce00" stroke="#000000" stroke-width="2"/><path d="M227.82464,153.98684c0.05443,2.49941 -2.44498,2.55383 -2.44498,2.55383l-2.33168,0.05077c-6.2495,0.13482 -12.46673,0.70349 -18.68816,1.25682c-3.48908,19.6772 -6.97815,39.35439 -10.46723,59.03159l-0.86955,2.35004c0,0 -0.91331,2.3272 -3.24051,1.41388c-2.3272,-0.91332 -1.41388,-3.24051 -1.41388,-3.24051l0.60074,-1.39637c3.41115,-19.2377 6.82229,-38.4754 10.23344,-57.7131c-3.35036,0.27473 -6.70485,0.50911 -10.06915,0.63313c0,0 -2.4983,0.09209 -2.5904,-2.40621c-0.0921,-2.4983 2.40621,-2.5904 2.40621,-2.5904c3.72801,-0.13743 7.44368,-0.40922 11.15496,-0.72129c0.01352,-0.07622 0.02703,-0.15243 0.04054,-0.22866c0,0 0.43649,-2.4616 2.89809,-2.02512c1.36157,0.24143 1.83649,1.10243 1.98904,1.82375c5.96026,-0.52917 11.91827,-1.05477 17.90703,-1.18635l2.33168,-0.05077c0,0 2.4994,-0.05443 2.55383,2.44498z" fill="#338700" stroke="none" stroke-width="0.5"/><path d="M253.36025,216.65035c-2.30052,0.97856 -3.27909,-1.32196 -3.27909,-1.32196l-0.17329,-0.4074c-1.25939,-2.96186 -2.58119,-5.89818 -3.97263,-8.80034c-1.52529,-2.08182 -2.71832,-4.43793 -4.51899,-6.28674c-1.60848,-1.65149 -3.92495,-2.44694 -6.02999,-3.38687c-1.60591,-0.71706 -3.89419,-0.33734 -4.99051,-1.71256c-0.97634,-1.22469 -0.38475,-3.15361 -0.11939,-4.69721c0.46484,-2.70396 2.57838,-4.84471 3.79336,-7.30464c1.31337,-2.65915 2.35998,-5.44192 3.54364,-8.16129c0.64177,-1.47442 1.35501,-2.91959 1.9282,-4.422c0.46967,-1.23107 0.8304,-2.50169 1.19623,-3.7675c0.04484,-0.15513 0.19305,-0.46801 0.03231,-0.48336c-1.47983,-0.14137 -2.88243,0.72961 -4.31575,1.12388c-0.77424,0.21297 -1.52676,0.5051 -2.2634,0.82473c-0.6209,0.26941 -1.23607,0.55233 -1.84582,0.847c-2.45433,10.00045 -3.90852,20.18301 -6.3108,30.19986l-0.98685,4.52889c0,0 -0.53233,2.44267 -2.975,1.91033c-2.44267,-0.53234 -1.91033,-2.97501 -1.91033,-2.97501l0.99823,-4.57979c2.06206,-8.59305 3.43405,-17.30589 5.32436,-25.92462c-0.70131,0.25009 -2.05233,0.46531 -2.97065,-1.06045c-1.2892,-2.14195 0.85276,-3.43115 0.85276,-3.43115c1.19085,-0.71532 2.42883,-1.45389 3.70582,-2.15901c0.09187,-0.35118 0.18515,-0.70212 0.2799,-1.05279c0,0 0.65248,-2.41335 3.06583,-1.76087c0.5143,0.13905 0.88937,0.35806 1.16119,0.61665c2.16584,-0.88727 4.40758,-1.52413 6.69201,-1.67926c3.56406,-0.24202 6.05444,-0.08059 6.4468,4.61486c0.16798,2.01031 -0.82776,3.95771 -1.4622,5.87267c-1.44398,4.35842 -3.65605,8.9815 -5.69223,13.10957c-0.74706,1.51457 -1.61817,2.96476 -2.4157,4.45337c-0.36425,0.67989 -0.62594,1.42096 -1.06956,2.05194c-0.1409,0.2004 -0.87584,0.33121 -0.63418,0.37139c0.89756,0.14921 1.87098,-0.32435 2.72952,-0.02305c6.28697,2.20637 9.34325,6.65187 13.05193,11.77605c1.50172,3.10197 2.93353,6.23905 4.28295,9.41024l0.17329,0.40739c0,0 0.97856,2.30053 -1.32197,3.27909z" fill="#338700" stroke="none" stroke-width="0.5"/><path d="M295.12165,143.45215c1.6273,1.89786 -0.27056,3.52516 -0.27056,3.52516l-1.15574,0.99098c-7.40398,6.34672 -14.40437,13.17685 -21.48744,19.8888c-1.49167,6.92252 -3.46121,13.7334 -5.15254,20.60254c2.57247,-1.90065 5.06168,-3.89867 7.49263,-6.05986l3.20807,-2.80437c0,0 1.88223,-1.64536 3.52759,0.23687c1.64536,1.88223 -0.23687,3.52759 -0.23687,3.52759l-3.19303,2.79117c-3.95951,3.51506 -8.06809,6.62565 -12.42201,9.57681c-0.16112,0.87197 -0.31135,1.74612 -0.46643,2.6191c-0.20414,1.14909 -0.99428,3.22342 0.13993,3.49846c7.53882,1.8281 15.05316,-2.4796 21.59695,-5.41833l1.56432,-0.70224c0,0 2.28073,-1.02384 3.30458,1.25689c1.02384,2.28073 -1.25689,3.30458 -1.25689,3.30458l-1.56432,0.70224c-3.11872,1.39945 -6.01089,3.34259 -9.25824,4.41012c-1.70364,0.56006 -3.53265,0.62045 -5.30133,0.91682c-3.78222,0.63376 -7.73733,1.7912 -11.51933,-0.10266c-3.93561,-1.97079 -3.07421,-5.1817 -2.65686,-8.56278c0.0778,-0.63027 0.16494,-1.2601 0.26049,-1.88951c-0.71558,-1.34592 -0.005,-2.3643 0.48865,-2.85612c1.39914,-7.39177 3.76933,-14.73036 5.60464,-22.05028c-0.17219,-0.11722 -0.34521,-0.26482 -0.51707,-0.44812c-1.71,-1.8237 0.1137,-3.5337 0.1137,-3.5337c8.11129,-7.60557 16.03567,-15.46057 24.47622,-22.69973l1.15574,-0.99097c0,0 1.89787,-1.6273 3.52517,0.27057z" fill="#338700" stroke="none" stroke-width="0.5"/><path d="M255.44271,258.61944c-1.26021,-2.15913 0.89893,-3.41935 0.89893,-3.41935l4.1844,-2.44217c5.68195,-3.45099 10.89766,-6.29898 15.28642,-11.34375c1.90209,-2.18641 4.10013,-3.69725 4.11263,-6.92868c0.01619,-4.18499 -1.78434,-3.13017 -3.79752,-6.08551c-0.79542,-1.16767 -1.07942,-2.61506 -1.72706,-3.87073c-0.94644,-1.83499 -2.89375,-3.33236 -3.04996,-5.39113c-0.27253,-3.59208 4.70524,-5.37452 6.92642,-6.09124c5.83571,-1.88306 12.53698,-1.55477 18.34189,-0.04914c0,0 2.41724,0.63794 1.7793,3.05517c-0.63794,2.41724 -3.05518,1.7793 -3.05518,1.7793c-2.62892,-0.70772 -5.38637,-1.20756 -8.10285,-1.02616c-1.59873,0.10676 -3.17196,0.45633 -4.75915,0.6758c-0.23365,0.03231 -6.50103,1.09298 -6.13065,1.70258c0.66504,1.09459 1.77889,1.86982 2.44638,2.96292c0.64574,1.0575 0.75215,2.39949 1.45231,3.42178c0.7547,1.10191 2.21123,1.65169 2.83229,2.83409c0.98307,1.8716 1.82964,3.9543 1.84375,6.06833c0.03319,4.9754 -2.46097,6.86648 -5.32763,10.2097c-4.71893,5.5034 -10.37661,8.64585 -16.51335,12.37274l-4.22204,2.46436c0,0 -2.15913,1.2602 -3.41934,-0.89893z" fill="#338700" stroke="none" stroke-width="0.5"/><path d="M300.87844,82.60123c0.92078,2.32425 -1.40347,3.24504 -1.40347,3.24504l-2.38699,0.94253c-4.84016,2.46307 -9.34711,3.53772 -14.60052,4.84028c-18.45233,3.25644 -37.9901,5.93538 -53.93999,16.39114c-3.47233,2.27625 -6.2479,5.47332 -8.81797,8.66436c-5.91475,7.34387 -11.21328,15.00556 -16.69716,22.67132c-5.23881,7.32296 -10.81635,14.70297 -15.37171,22.4747c-2.00641,3.42307 -3.33229,7.35082 -5.19011,10.88086c-6.80595,12.93196 -13.59483,25.86726 -20.81135,38.57558c0,0 -1.23449,2.17394 -3.40843,0.93945c-2.17394,-1.23449 -0.93945,-3.40843 -0.93945,-3.40843c7.19036,-12.66226 13.95047,-25.55239 20.73488,-38.43577c1.87849,-3.5672 3.22279,-7.51433 5.24458,-10.98151c4.63162,-7.94283 10.32841,-15.48033 15.67506,-22.95405c5.5399,-7.74361 10.88089,-15.49628 16.87318,-22.90283c2.87904,-3.55853 5.9981,-7.0861 9.86659,-9.63751c16.50832,-10.88785 36.61349,-13.80405 55.74515,-17.16865c4.922,-1.2235 9.05333,-2.17174 13.57437,-4.50356l2.6083,-1.03642c0,0 2.32425,-0.92078 3.24504,1.40347z" fill="#338700" stroke="none" stroke-width="0.5"/><path d="M327.46161,232.51665c1.15257,2.21847 -1.0659,3.37103 -1.0659,3.37103l-3.63358,1.88724c-8.33919,4.75113 -16.72424,9.43089 -25.06992,14.156c-6.5214,3.69225 -12.53846,8.33295 -19.24539,11.71152c-9.63712,4.85463 -20.73721,8.20172 -31.42694,9.40928c-14.32879,1.57363 -26.6744,-3.02068 -39.81582,-8.18787c-15.57623,-6.12455 -30.57368,-12.5832 -43.70357,-23.19093c0,0 -1.94348,-1.57254 -0.37093,-3.51602c1.57254,-1.94348 3.51602,-0.37093 3.51602,-0.37093c12.70868,10.29965 27.30227,16.49306 42.39203,22.42621c12.33205,4.84885 23.97614,9.39906 37.42747,7.87042c10.10405,-1.11382 20.67263,-4.3329 29.77377,-8.92623c6.61409,-3.33812 12.55305,-7.92879 18.98648,-11.57452c8.36904,-4.74262 16.78105,-9.43501 25.14648,-14.19855l3.71878,-1.93255c0,0 2.21847,-1.15257 3.37103,1.0659z" fill="#338700" stroke="none" stroke-width="0.5"/></g></g></svg>