<svg version="1.1" xmlns="http://www.w3.org/2000/svg" xmlns:xlink="http://www.w3.org/1999/xlink" width="154" height="218" viewBox="0,0,154,218"><g transform="translate(-163,-71)"><g data-paper-data="{&quot;isPaintingLayer&quot;:true}" fill-rule="nonzero" stroke-linecap="butt" stroke-linejoin="miter" stroke-miterlimit="10" stroke-dasharray="" stroke-dashoffset="0" style="mix-blend-mode: normal"><path d="M164,288v-216h152v216z" fill="#a300f5" stroke="#000000" stroke-width="2"/><path d="M226.91259,263.41961c2.48038,0.31258 2.1678,2.79296 2.1678,2.79296l-0.50534,2.25014c-0.83681,1.36945 -1.7483,2.69209 -2.7099,3.97968l0.20699,0.10349l-2.21185,4.42369c-0.40086,0.84561 -1.26228,1.43041 -2.26029,1.43041c-1.38071,0 -2.5,-1.11929 -2.5,-2.5v-4.99999v-0.00001c-0.00017,-14.28907 0.34898,-28.64658 -0.33239,-42.9207c-0.78426,-16.46939 -1.55577,-32.93853 -2.44389,-49.40267c-0.43247,-8.01714 0.06478,-16.76882 -1.31307,-24.66883c-0.71066,-4.07467 -2.47189,-8.28701 -3.78236,-12.21724c0,0 -0.79057,-2.37171 1.58114,-3.16228c2.37171,-0.79057 3.16228,1.58114 3.16228,1.58114c1.38707,4.16247 3.21214,8.62506 3.96459,12.93929c1.41298,8.10145 0.93681,17.03975 1.38016,25.25859c0.88869,16.47463 1.66073,32.95428 2.44549,49.43416c0.60708,12.77895 0.40102,25.62248 0.34861,38.42611c0.06747,-0.10251 0.13322,-0.20577 0.19677,-0.30999l-0.18772,-0.27018c0,0 0.31258,-2.48038 2.79296,-2.1678z" fill="#000000" stroke="none" stroke-width="0.5"/><path d="M231.21326,244.81987c2.08013,-1.38675 3.46688,0.69338 3.46688,0.69338l1.57438,2.51256c3.49455,1.65563 6.99211,2.90559 10.46353,4.63813c2.49641,1.24592 4.74093,3.16192 7.45635,3.80295c1.43591,0.33897 2.95029,-0.05517 4.42562,-0.06688c2.82605,-0.02243 5.71387,0.64267 8.47824,0.05505c4.21999,-0.89704 8.8338,-4.13453 12.2968,-6.53143c12.04468,-8.33668 18.51142,-24.97683 18.97665,-39.23053c0.07811,-1.45448 0.50809,-2.93282 0.23433,-4.36343c-1.69972,-8.88235 -14.17568,-5.33445 -19.91574,-4.44728c-1.64711,0.25457 -3.29422,0.50914 -4.94135,0.76356c-11.01627,1.7016 -21.93669,4.78327 -33.13487,4.75404c-3.01851,-0.00788 -7.7732,0.23606 -10.38517,-1.42277c-5.36464,-3.40702 -3.13326,-13.37473 -3.05859,-18.63502c0.09203,-5.43736 1.32054,-9.90463 2.38074,-15.1961c1.05508,-5.26592 1.58263,-9.91516 3.62329,-14.93738c0.72853,-1.79297 0.96209,-3.90796 2.25054,-5.35206c4.05337,-4.54306 8.95983,-3.45666 14.19511,-3.45666c12,0 24,0 36,0c0,0 2.5,0 2.5,2.5c0,2.5 -2.5,2.5 -2.5,2.5c-12,0 -24,0 -36,0c-3.03835,0 -8.11517,-1.22149 -10.37982,1.6883c-0.85938,1.1042 -0.91833,2.64383 -1.41357,3.95247c-1.11226,2.93912 -2.00649,5.9836 -2.52617,9.08288c-1.09229,6.51412 -3.05658,12.67442 -3.13063,19.28961c-0.04026,2.82868 -0.01705,5.65797 -0.04981,8.48674c-0.00468,0.40444 -0.89965,5.08885 0.8911,5.92278c4.52343,2.10651 12.55042,0.56031 17.17062,-0.154c10.39279,-1.60678 20.66752,-3.81816 31.09231,-5.24473c8.59407,-1.17604 19.50464,-2.19735 22.21144,8.81423c0.4481,1.82294 -0.0779,3.7536 -0.11685,5.6304c-0.51073,13.65317 -5.43971,24.84382 -13.46681,35.70134c-1.07207,1.45009 -1.93825,3.08157 -3.22961,4.34033c-3.6457,3.55364 -8.91079,6.2159 -13.49752,8.24435c-1.67329,0.74 -3.24334,1.80955 -5.03291,2.19025c-0.27265,0.058 -8.44916,0.06254 -9.52176,0.05505c-1.85822,-0.01298 -3.76583,0.36006 -5.57438,-0.06688c-0.34475,-0.08139 -7.4955,-3.67198 -8.54365,-4.19705c-3.85653,-1.93195 -7.69312,-3.36934 -11.53647,-5.36187l-2.42562,-3.48744c0,0 -1.38675,-2.08013 0.69338,-3.46688z" fill="#000000" stroke="none" stroke-width="0.5"/></g></g></svg>