<svg version="1.1" xmlns="http://www.w3.org/2000/svg" xmlns:xlink="http://www.w3.org/1999/xlink" width="154" height="218" viewBox="0,0,154,218"><g transform="translate(-163,-71)"><g data-paper-data="{&quot;isPaintingLayer&quot;:true}" fill-rule="nonzero" stroke-linecap="butt" stroke-linejoin="miter" stroke-miterlimit="10" stroke-dasharray="" stroke-dashoffset="0" style="mix-blend-mode: normal"><path d="M164,288v-216h152v216z" fill="#09c600" stroke="#000000" stroke-width="2"/><path d="M272.83224,127.13223c1.76777,-1.76777 3.53553,0 3.53553,0l2.54193,2.81106c0.06343,1.65224 0.12687,3.30447 0.1903,4.95671c-0.0331,1.8992 0.37177,3.85744 -0.0993,5.69759c-0.66914,2.61391 -4.20151,5.75729 -5.70375,7.65905c-2.93852,3.72001 -5.40561,7.78009 -8.37435,11.49207c-6.9225,8.65557 -12.83409,17.69388 -19.31941,26.64703c-1.92755,2.66104 -2.77176,2.79665 -4.90061,5.85672c-0.69424,0.99791 -1.22325,2.09179 -1.70755,3.21175c0.86411,0.9104 1.70228,1.84688 2.50866,2.81531c4.87969,5.86039 9.31029,13.22874 12.41153,20.1742c1.91996,4.31991 4.98904,9.25389 6.11026,13.84047c1.05735,4.32526 0.95079,10.03294 1.07293,14.51671c0.05559,2.04085 0.60917,8.52383 -2.03664,10.11722c-1.85007,1.11417 -4.30394,0.38305 -6.46178,0.47189c-3.33051,0.13712 -6.66742,0.07081 -10,0c-1.32013,-0.02805 -2.78232,0.41331 -3.95671,-0.1903c-1.76686,-0.90814 -2.92466,-2.69015 -4.34659,-4.07747c-0.96872,-0.94514 -2.1603,-1.73803 -2.82333,-2.91791c-1.76633,-3.14322 -2.1659,-7.10828 -2.75567,-10.56911c-1.42786,-8.37892 -1.61771,-16.25267 -1.61771,-24.74522c0.06956,-6.29957 3.08515,-12.27641 5.78909,-17.897c-0.56325,-0.4801 -1.12184,-0.96467 -1.66228,-1.4665c-8.25511,-7.66546 -17.63146,-14.21519 -24.61536,-23.12135c-2.46722,-3.1463 -6.30281,-8.00254 -7.64176,-11.67857c-1.50679,-4.13682 -0.64663,-11.11488 1.42613,-15.01622c0.85649,-1.61207 2.41841,-2.73509 3.62761,-4.10264c4.54809,-5.0029 9.18282,-9.74412 14.08237,-14.40331c0.31927,-0.3036 7.3297,-6.98077 7.51811,-7.11509c4.2469,-3.02767 9.53342,-4.94668 14.49449,-6.29565c6.13978,-1.66946 13.72447,-3.24688 19.06658,1.16297c1.03736,0.85632 2.2608,1.71404 2.72473,2.97665c0.15205,0.41381 0.34073,7.98676 0,8.91342c-0.32537,0.88488 -1.61484,1.13945 -2,2c-0.27945,0.62436 0.12687,1.36219 0.1903,2.04329c0,0 0,2.5 -2.5,2.5c-2.5,0 -2.5,-2.5 -2.5,-2.5c0.06343,-1.3189 -0.26539,-2.71741 0.1903,-3.95671c0.32537,-0.88488 1.61484,-1.13945 2,-2c0.27945,-0.62436 -0.1903,-1.35925 -0.1903,-2.04329c0,-1.01641 0.45231,-2.06123 0.1903,-3.04329c-0.1405,-0.52662 -0.83942,-0.69609 -1.27527,-1.02335c-0.70277,-0.52768 -1.28182,-1.34899 -2.13949,-1.54063c-3.81912,-0.85333 -8.82743,0.34576 -12.44157,1.33477c-4.39504,1.2027 -9.13688,2.85494 -12.90758,5.54313c-2.61891,1.86706 -4.64434,4.45069 -6.97506,6.66707c-4.81246,4.57637 -9.36096,9.2294 -13.82821,14.14338c-0.97298,1.03285 -2.25428,1.84488 -2.91894,3.09856c-4.22811,7.97516 0.92955,15.12936 5.78437,21.30522c6.89942,8.77681 16.4555,14.88506 24.62967,22.38262c0.37827,-0.76799 0.7938,-1.5143 1.27919,-2.21993c1.5083,-2.19264 3.5404,-3.98639 5.09939,-6.14328c5.52222,-7.64005 10.39571,-15.49687 16.29797,-22.87469c4.00484,-5.00606 7.5186,-10.35185 11.47752,-15.37085c1.58268,-2.00648 4.27792,-3.46044 4.827,-5.95631c0.30822,-1.40102 -0.0662,-2.86828 -0.0993,-4.30241c0.06343,-1.01443 0.12687,-2.02886 0.1903,-3.04329l-1.45807,-1.18894c0,0 -1.76777,-1.76777 0,-3.53553zM236.75811,200.47569c-2.20055,4.4821 -4.73061,9.51674 -4.6581,14.4243c0,8.22311 0.17778,15.80024 1.54726,23.90884c0.37697,2.23203 0.88751,6.64981 2.07937,8.77683c0.47444,0.84669 1.43161,1.31267 2.10561,2.01103c0.93699,0.97085 1.56137,2.30973 2.72448,2.9936c0.58967,0.34671 1.3595,-0.17183 2.04329,-0.1903c1.66606,-0.04501 3.33333,0 5,0c1.66667,0 3.33587,-0.09197 5,0c1.18804,0.06566 2.38525,0.76581 3.53822,0.47189c0.44328,-0.113 -0.00309,-0.9149 -0.00594,-1.37235c-0.01755,-2.8175 -0.11222,-5.63648 -0.31346,-8.44684c-0.22781,-3.18139 0.11001,-6.44783 -0.64431,-9.54688c-1.04717,-4.30218 -4.02881,-8.97246 -5.82835,-13.02142c-2.88766,-6.53029 -7.08203,-13.46129 -11.64985,-18.96392c-0.29951,-0.36081 -0.6134,-0.70797 -0.93821,-1.04479z" fill="#000000" stroke="none" stroke-width="0.5"/></g></g></svg>