<svg version="1.1" xmlns="http://www.w3.org/2000/svg" xmlns:xlink="http://www.w3.org/1999/xlink" width="388.02017" height="261.82328" viewBox="0,0,388.02017,261.82328"><g transform="translate(-125.98997,-115.07585)"><g data-paper-data="{&quot;isPaintingLayer&quot;:true}" fill-rule="nonzero" stroke-linecap="butt" stroke-linejoin="miter" stroke-miterlimit="10" stroke-dasharray="" stroke-dashoffset="0" style="mix-blend-mode: normal"><path d="M126.73997,244.17415v-128.3483h386.52017v128.3483z" fill-opacity="0.76078" fill="#000000" stroke="#ff0000" stroke-width="1.5"/><text transform="translate(271.00203,299.62829) scale(0.5,0.5)" font-size="40" xml:space="preserve" fill="#000000" fill-rule="nonzero" stroke="none" stroke-width="1" stroke-linecap="butt" stroke-linejoin="miter" stroke-miterlimit="10" stroke-dasharray="" stroke-dashoffset="0" font-family="Sans Serif" font-weight="normal" text-anchor="start" style="mix-blend-mode: normal"><tspan x="0" dy="0"> </tspan></text><text transform="translate(193.7401,272.88316) scale(0.5,0.5)" font-size="40" xml:space="preserve" fill="#ffffff" fill-rule="nonzero" stroke="none" stroke-width="1" stroke-linecap="butt" stroke-linejoin="miter" stroke-miterlimit="10" stroke-dasharray="" stroke-dashoffset="0" font-family="Sans Serif" font-weight="normal" text-anchor="start" style="mix-blend-mode: normal"><tspan x="0" dy="0"> </tspan></text><path d="M132.41467,376.14913v-102.76418h375.17081v102.76418z" fill-opacity="0.76078" fill="#000000" stroke="#ff0000" stroke-width="1.5"/><path d="M357.39135,217.24226v-70.78557h46.83106v70.78557z" fill-opacity="0.53725" fill="#00ffff" stroke="#00d0ff" stroke-width="2"/><text transform="translate(207.93009,235.53381) scale(0.5,0.5)" font-size="40" xml:space="preserve" fill-opacity="0.60784" fill="#00ffe1" fill-rule="nonzero" stroke="none" stroke-width="1" stroke-linecap="butt" stroke-linejoin="miter" stroke-miterlimit="10" stroke-dasharray="" stroke-dashoffset="0" font-family="Sans Serif" font-weight="normal" text-anchor="start" style="mix-blend-mode: normal"><tspan x="0" dy="0">Dies ist den Kartensatz.</tspan></text><text transform="translate(141.88739,151.87855) scale(0.24584,0.24584)" font-size="40" xml:space="preserve" fill-opacity="0.60784" fill="#00ffe1" fill-rule="nonzero" stroke="none" stroke-width="1" stroke-linecap="butt" stroke-linejoin="miter" stroke-miterlimit="10" stroke-dasharray="" stroke-dashoffset="0" font-family="Sans Serif" font-weight="normal" text-anchor="start" style="mix-blend-mode: normal"><tspan x="0" dy="0">Klick der Kartensatz und zieh eine Karte</tspan></text><text transform="translate(412.8628,140.8142) scale(0.22337,0.22337)" font-size="40" xml:space="preserve" fill-opacity="0.60784" fill="#ff0000" fill-rule="nonzero" stroke="none" stroke-width="1" stroke-linecap="butt" stroke-linejoin="miter" stroke-miterlimit="10" stroke-dasharray="" stroke-dashoffset="0" font-family="Sans Serif" font-weight="normal" text-anchor="start" style="mix-blend-mode: normal"><tspan x="0" dy="0">Es gibt nur 142 Karten</tspan></text><text transform="translate(415.11587,151.8896) scale(0.22337,0.22337)" font-size="40" xml:space="preserve" fill-opacity="0.60784" fill="#00ffe1" fill-rule="nonzero" stroke="none" stroke-width="1" stroke-linecap="butt" stroke-linejoin="miter" stroke-miterlimit="10" stroke-dasharray="" stroke-dashoffset="0" font-family="Sans Serif" font-weight="normal" text-anchor="start" style="mix-blend-mode: normal"><tspan x="0" dy="0">Am Start, es gibt 105</tspan></text><text transform="translate(141.57551,180.25084) scale(0.24584,0.24584)" font-size="40" xml:space="preserve" fill-opacity="0.60784" fill="#00ffe1" fill-rule="nonzero" stroke="none" stroke-width="1" stroke-linecap="butt" stroke-linejoin="miter" stroke-miterlimit="10" stroke-dasharray="" stroke-dashoffset="0" font-family="Sans Serif" font-weight="normal" text-anchor="start" style="mix-blend-mode: normal"><tspan x="0" dy="0">Wenn ein Zieh 3 oder 6 wurde gespielt, </tspan><tspan x="0" dy="48px">du musst hier Klicken,</tspan><tspan x="0" dy="48px">oder ein Zieh-Karte spielen.</tspan></text><path d="M413.84205,129.82438c-0.5547,0.83205 -1.38675,0.27735 -1.38675,0.27735l-1.10158,-0.73439c-0.77418,-0.52447 -1.99248,-0.53891 -2.4597,-1.34892c-0.26071,-0.45198 -0.2965,-0.97501 -0.18224,-1.50135c-0.82373,-2.09989 1.63416,-1.78755 1.93113,-3.19464l0.11607,-0.08215l-0.0498,-0.0332l0.72578,-1.08867c0.17805,-0.2757 0.48804,-0.4582 0.84065,-0.4582c0.55228,0 1,0.44772 1,1c0,0.21013 -0.06481,0.40512 -0.17553,0.56608l-0.66584,0.99877c-0.08397,0.37591 -0.18787,0.72589 -0.31853,0.99633c0.95192,-0.01189 2.03628,0.11076 2.36307,0.11076c3.86539,0 9.02845,0.5403 9.07825,5.40632c0,0 0,1 -1,1c-1,0 -1,-1 -1,-1c0.05785,-4.21782 -6.74778,-3.40632 -9.6486,-3.40632c-0.032,0 -0.06809,0.00021 -0.1078,0.00054c0.2291,0.10922 0.4512,0.23155 0.6625,0.37057l1.10158,0.73439c0,0 0.83205,0.5547 0.27735,1.38675z" fill-opacity="0.60784" fill="#00ffe1" stroke="none" stroke-width="0.5"/><path d="M438.66684,300.5996c0,2.5 -2.5,2.5 -2.5,2.5h-0.65782c-4.90886,-0.02504 -10.74429,2.84134 -15.60268,1.27054c-1.78858,-0.57828 -4.07795,-0.94998 -5.01454,-2.57977c-1.3979,-2.43254 -0.60547,-3.74236 0.33575,-5.0724c-0.18344,-2.00934 0.02027,-4.12405 0.02027,-5.32787c0.01176,-1.84369 0.21727,-3.70192 0.65782,-5.49251v-2.40135v0c0,-1.38071 1.11929,-2.5 2.5,-2.5c1.18975,0 2.18539,0.83109 2.43804,1.9444l0.64514,2.58056l-0.07705,0.01926c0.04613,0.09283 0.0905,0.18668 0.13297,0.28162c0.39966,0.89364 0.01544,1.95782 0.01873,2.93675c0.00172,0.51219 0.00472,2.30148 -0.00561,3.87546c0.09394,-0.10581 0.17019,-0.1909 0.22173,-0.25089c3.89106,-4.52881 8.13973,-8.79559 11.70133,-13.63804c3.40162,-4.62494 7.16478,-9.4013 9.72914,-14.59487c1.46083,-2.95862 2.39954,-6.15008 3.7407,-9.16483c3.03262,-6.81693 6.80078,-13.31775 7.37255,-20.91058c0.35738,-4.40847 0.79461,-9.05681 0.40602,-13.48343c-0.68336,-7.78442 -6.68915,-17.70168 -13.36049,-21.84085c-6.75248,-4.18951 -14.82345,-4.38236 -22.2539,-6.23997c0,0 -2.42536,-0.60634 -1.81902,-3.0317c0.60634,-2.42536 3.0317,-1.81902 3.0317,-1.81902c7.98557,1.99639 16.54612,2.3611 23.79367,6.91648c7.95103,4.99755 14.71396,16.22485 15.5837,25.52236c0.44102,4.71455 -0.02092,9.68098 -0.39787,14.37807c-0.69936,8.21386 -4.49918,15.14803 -7.78802,22.54093c-2.83698,6.37717 -5.10218,12.56559 -9.30791,18.25609c-3.33613,4.51391 -7.24385,8.57994 -10.63586,13.02887c-2.47378,3.24459 -4.882,7.23943 -7.99194,9.98778c-0.39189,0.34632 -0.77876,0.76482 -1.17187,1.18975c0.20982,-0.03857 0.41165,-0.06399 0.59888,-0.06517c4.26886,-0.02704 8.22935,-1.29759 12.49863,-1.31564h0.65782c0,0 2.5,0 2.5,2.5z" fill-opacity="0.60784" fill="#ff0000" stroke="none" stroke-width="0.5"/><text transform="translate(416.40608,255.17777) scale(0.23577,0.2584)" font-size="40" xml:space="preserve" fill="#ffffff" fill-rule="nonzero" stroke="none" stroke-width="1" stroke-linecap="butt" stroke-linejoin="miter" stroke-miterlimit="10" stroke-dasharray="" stroke-dashoffset="0" font-family="Sans Serif" font-weight="normal" text-anchor="start" style="mix-blend-mode: normal"><tspan x="0" dy="0">Klicken zu fortfahren</tspan></text></g></g></svg>