<svg version="1.1" xmlns="http://www.w3.org/2000/svg" xmlns:xlink="http://www.w3.org/1999/xlink" width="388.02017" height="261.82328" viewBox="0,0,388.02017,261.82328"><g transform="translate(-125.98991,-115.07585)"><g data-paper-data="{&quot;isPaintingLayer&quot;:true}" fill-rule="nonzero" stroke-linecap="butt" stroke-linejoin="miter" stroke-miterlimit="10" stroke-dasharray="" stroke-dashoffset="0" style="mix-blend-mode: normal"><path d="M126.73991,244.17415v-128.3483h386.52017v128.3483z" fill-opacity="0.76078" fill="#000000" stroke="#ff0000" stroke-width="1.5"/><text transform="translate(134.26854,160.00413) scale(0.27696,0.27696)" font-size="40" xml:space="preserve" fill-opacity="0.60784" fill="#00ffe1" fill-rule="nonzero" stroke="none" stroke-width="1" stroke-linecap="butt" stroke-linejoin="miter" stroke-miterlimit="10" stroke-dasharray="" stroke-dashoffset="0" font-family="Sans Serif" font-weight="normal" text-anchor="start" style="mix-blend-mode: normal"><tspan x="0" dy="0">Liege eine Karte hier, damit</tspan><tspan x="0" dy="46.150000000000006px">du es spielen kannst.</tspan></text><text transform="translate(335.47916,160.57832) scale(0.27696,0.27696)" font-size="40" xml:space="preserve" fill-opacity="0.60784" fill="#00ffe1" fill-rule="nonzero" stroke="none" stroke-width="1" stroke-linecap="butt" stroke-linejoin="miter" stroke-miterlimit="10" stroke-dasharray="" stroke-dashoffset="0" font-family="Sans Serif" font-weight="normal" text-anchor="start" style="mix-blend-mode: normal"><tspan x="0" dy="0">Die Karte muss die gleiche Farbe</tspan><tspan x="0" dy="46.150000000000006px">oder Nummer sein, sonst sie ist</tspan><tspan x="0" dy="46.150000000000006px">nicht spielbar.</tspan></text><text transform="translate(416.40605,255.17777) scale(0.23577,0.2584)" font-size="40" xml:space="preserve" fill="#ffffff" fill-rule="nonzero" stroke="none" stroke-width="1" stroke-linecap="butt" stroke-linejoin="miter" stroke-miterlimit="10" stroke-dasharray="" stroke-dashoffset="0" font-family="Sans Serif" font-weight="normal" text-anchor="start" style="mix-blend-mode: normal"><tspan x="0" dy="0">Klicken zu fortfahren</tspan></text><text transform="translate(271.00197,299.62829) scale(0.5,0.5)" font-size="40" xml:space="preserve" fill="#000000" fill-rule="nonzero" stroke="none" stroke-width="1" stroke-linecap="butt" stroke-linejoin="miter" stroke-miterlimit="10" stroke-dasharray="" stroke-dashoffset="0" font-family="Sans Serif" font-weight="normal" text-anchor="start" style="mix-blend-mode: normal"><tspan x="0" dy="0"> </tspan></text><text transform="translate(193.74004,272.88316) scale(0.5,0.5)" font-size="40" xml:space="preserve" fill="#ffffff" fill-rule="nonzero" stroke="none" stroke-width="1" stroke-linecap="butt" stroke-linejoin="miter" stroke-miterlimit="10" stroke-dasharray="" stroke-dashoffset="0" font-family="Sans Serif" font-weight="normal" text-anchor="start" style="mix-blend-mode: normal"><tspan x="0" dy="0"> </tspan></text><g stroke="none"><path d="M380.12717,201.64886c0,-3.22446 2.61394,-5.83839 5.83839,-5.83839c3.22446,0 5.83839,2.61394 5.83839,5.83839c0,3.22446 -2.61394,5.83839 -5.83839,5.83839c-3.22446,0 -5.83839,-2.61394 -5.83839,-5.83839z" fill="#15ff00" stroke-width="0"/><text transform="translate(383.35557,205.24254) scale(0.23555,0.23555)" font-size="40" xml:space="preserve" fill="#000000" fill-rule="nonzero" stroke="none" stroke-width="1" stroke-linecap="butt" stroke-linejoin="miter" stroke-miterlimit="10" stroke-dasharray="" stroke-dashoffset="0" font-family="Sans Serif" font-weight="normal" text-anchor="start" style="mix-blend-mode: normal"><tspan x="0" dy="0">1</tspan></text><path d="M402.21195,204.15409c-0.33541,-0.67082 0.33541,-1.00623 0.33541,-1.00623l0.64066,-0.3119c0.1693,-0.05479 0.31318,-0.10966 0.43393,-0.1646c-0.31356,0.00411 -0.59477,-0.00115 -0.73918,-0.00115c-2.66678,0 -5.20314,0.27121 -7.86512,0.27121c0,0 -0.75,0 -0.75,-0.75c0,-0.75 0.75,-0.75 0.75,-0.75c2.21601,0 4.30244,-0.27121 6.50906,-0.27121c0.0836,0 0.33983,-0.0273 0.65779,-0.04824l-0.33613,-0.11204c-0.30647,-0.09425 -0.52924,-0.3796 -0.52924,-0.71698c0,-0.41421 0.33579,-0.75 0.75,-0.75c0.08907,0 0.17452,0.01553 0.25378,0.04402l0.79702,0.26567c0.09265,0.03088 0.1938,0.0616 0.30041,0.0932c0.30235,-0.02095 0.65088,0.10345 0.98772,0.32079c0.55998,0.22493 1.03735,0.54517 1.0585,1.0875c0.35416,0.57054 0.51044,1.21534 0.24715,1.7336c-0.35433,0.69744 -1.39143,0.94618 -2.05135,1.17125l-0.44418,0.23052c0,0 -0.67082,0.33541 -1.00623,-0.33541z" fill-opacity="0.60784" fill="#ff0000" stroke-width="0.5"/><path d="M408.18011,201.22464c0,-3.22446 2.61394,-5.83839 5.83839,-5.83839c3.22445,0 5.83839,2.61394 5.83839,5.83839c0,3.22446 -2.61394,5.83839 -5.83839,5.83839c-3.22445,0 -5.83839,-2.61393 -5.83839,-5.83839z" fill="#15ff00" stroke-width="0"/><text transform="translate(411.40851,204.81831) scale(0.23555,0.23555)" font-size="40" xml:space="preserve" fill="#000000" fill-rule="nonzero" stroke="none" stroke-width="1" stroke-linecap="butt" stroke-linejoin="miter" stroke-miterlimit="10" stroke-dasharray="" stroke-dashoffset="0" font-family="Sans Serif" font-weight="normal" text-anchor="start" style="mix-blend-mode: normal"><tspan x="0" dy="0">4</tspan></text><path d="M431.23305,201.76706c0,-3.22446 2.61394,-5.83839 5.83839,-5.83839c3.22445,0 5.83839,2.61394 5.83839,5.83839c0,3.22446 -2.61394,5.83839 -5.83839,5.83839c-3.22445,0 -5.83839,-2.61393 -5.83839,-5.83839z" fill="#15ff00" stroke-width="0"/><text transform="translate(434.46144,205.36074) scale(0.23555,0.23555)" font-size="40" xml:space="preserve" fill="#000000" fill-rule="nonzero" stroke="none" stroke-width="1" stroke-linecap="butt" stroke-linejoin="miter" stroke-miterlimit="10" stroke-dasharray="" stroke-dashoffset="0" font-family="Sans Serif" font-weight="normal" text-anchor="start" style="mix-blend-mode: normal"><tspan x="0" dy="0">1</tspan></text><path d="M453.31782,204.27229c-0.33541,-0.67082 0.33541,-1.00624 0.33541,-1.00624l0.64066,-0.3119c0.16929,-0.05479 0.31318,-0.10966 0.43393,-0.1646c-0.31356,0.00411 -0.59477,-0.00115 -0.73918,-0.00115c-2.66679,0 -5.20313,0.27121 -7.86512,0.27121c0,0 -0.75,0 -0.75,-0.75c0,-0.75 0.75,-0.75 0.75,-0.75c2.21601,0 4.30244,-0.27121 6.50907,-0.27121c0.0836,0 0.33983,-0.02729 0.65779,-0.04824l-0.33613,-0.11204c-0.30647,-0.09425 -0.52924,-0.3796 -0.52924,-0.71698c0,-0.41422 0.33578,-0.75 0.75,-0.75c0.08907,0 0.17452,0.01553 0.25378,0.04403l0.79703,0.26567c0.09265,0.03088 0.1938,0.0616 0.30041,0.0932c0.30235,-0.02095 0.65087,0.10344 0.98771,0.32079c0.55998,0.22493 1.03735,0.54517 1.05849,1.0875c0.35416,0.57054 0.51045,1.21534 0.24715,1.7336c-0.35433,0.69744 -1.39143,0.94618 -2.05135,1.17125l-0.44419,0.23052c0,0 -0.67082,0.33541 -1.00623,-0.33541z" fill-opacity="0.60784" fill="#ff0000" stroke-width="0.5"/><path d="M459.28599,201.34284c0,-3.22446 2.61394,-5.83839 5.83839,-5.83839c3.22445,0 5.83839,2.61394 5.83839,5.83839c0,3.22446 -2.61394,5.83839 -5.83839,5.83839c-3.22445,0 -5.83839,-2.61393 -5.83839,-5.83839z" fill="#dd00ff" stroke-width="0"/><text transform="translate(462.51438,204.93652) scale(0.23555,0.23555)" font-size="40" xml:space="preserve" fill="#000000" fill-rule="nonzero" stroke="none" stroke-width="1" stroke-linecap="butt" stroke-linejoin="miter" stroke-miterlimit="10" stroke-dasharray="" stroke-dashoffset="0" font-family="Sans Serif" font-weight="normal" text-anchor="start" style="mix-blend-mode: normal"><tspan x="0" dy="0">1</tspan></text></g><path d="M132.4146,376.14913v-102.76418h375.17081v102.76418z" fill-opacity="0.76078" fill="#000000" stroke="#ff0000" stroke-width="1.5"/><path d="M326.69356,243.49126c-1.76777,1.46099 -3.53553,0 -3.53553,0l-1.1399,-0.99881c-1.31203,-1.66588 -3.40164,-2.81094 -5.07943,-4.23509c-2.45841,-2.08677 -4.37243,-4.73753 -6.04119,-7.27416c-0.83803,-1.27387 -1.64558,-2.56433 -2.34954,-3.89246c-0.14283,-0.26947 -0.2695,-0.54634 -0.3759,-0.82829c-0.17895,0.41853 -0.3895,0.82871 -0.61711,1.23345c0.79322,0.72544 1.10747,2.12206 1.58128,3.06131c1.12565,2.23141 1.4466,4.69837 2.52056,6.94711c0.126,12.4504 0.0458,24.90343 0.0458,37.35428c0,4.86668 -1.00351,10.57251 -0.04511,15.33951c0.48697,2.42215 2.70044,4.43614 3.31015,6.83923c0.31541,1.24314 0.03007,2.54022 0.04511,3.81034c0,0 0,2.06614 -2.5,2.06614c-2.5,0 -2.5,-2.06614 -2.5,-2.06614c0.01504,-1.00963 0.30047,-2.04149 0.04511,-3.02889c-0.50849,-1.96623 -2.89302,-4.82685 -3.31015,-6.83923c-1.04091,-5.02173 -0.04511,-10.99435 -0.04511,-16.12095c0,-12.18795 -0.10351,-24.37962 0.0458,-36.5669c-0.53206,-1.06431 -1.19246,-2.09075 -1.59619,-3.19292c-0.11995,-0.32746 -0.24549,-0.65761 -0.3622,-0.99011c-2.21075,3.71338 -5.25601,6.79813 -8.52501,9.89147l-2.42321,2.67023c-0.45492,0.51277 -1.18914,0.8457 -2.01746,0.8457c-1.38071,0 -2.5,-0.92504 -2.5,-2.06614c0,-0.34702 0.10352,-0.67407 0.28642,-0.96119l2.21358,-3.65885l0.01851,0.00764c0.01281,-0.03241 0.0258,-0.06479 0.03899,-0.09713c0.5452,-1.33732 1.81689,-2.38978 2.72597,-3.58434c2.43719,-3.20258 5.32351,-6.39469 7.41438,-9.76194c0.60185,-0.96924 3.14636,-7.10383 5.09498,-7.23288c2.06385,-0.13669 3.62559,1.75089 5.03961,3.00083c0.68629,0.60665 0.60369,1.58797 1.01061,2.34733c0.95936,1.79028 3.19903,5.26036 4.52985,6.88186c2.51124,3.05976 5.99455,4.78261 8.48116,7.80903l0.51518,0.36903c0,0 1.76777,1.46099 0,2.92196z" fill="#ff0000" stroke="none" stroke-width="0.5"/><text transform="translate(194.75452,234.11131) scale(0.5,0.5)" font-size="40" xml:space="preserve" fill-opacity="0.60784" fill="#00ffe1" fill-rule="nonzero" stroke="none" stroke-width="1" stroke-linecap="butt" stroke-linejoin="miter" stroke-miterlimit="10" stroke-dasharray="" stroke-dashoffset="0" font-family="Sans Serif" font-weight="normal" text-anchor="start" style="mix-blend-mode: normal"><tspan x="0" dy="0">Dies ist den Ablagestapel.</tspan></text><path d="M284.36726,215.33159v-71.27897h46.83106v71.27897z" fill-opacity="0.53725" fill="#00ffff" stroke="#00d0ff" stroke-width="2"/></g></g></svg>