<svg version="1.1" xmlns="http://www.w3.org/2000/svg" xmlns:xlink="http://www.w3.org/1999/xlink" width="154" height="218" viewBox="0,0,154,218"><g transform="translate(-163,-71)"><g data-paper-data="{&quot;isPaintingLayer&quot;:true}" fill-rule="nonzero" stroke-linecap="butt" stroke-linejoin="miter" stroke-miterlimit="10" stroke-dasharray="" stroke-dashoffset="0" style="mix-blend-mode: normal"><path d="M164,288v-216h152v216z" fill="#66abff" stroke="#000000" stroke-width="2"/><path d="M226.91259,263.41961c2.48038,0.31258 2.1678,2.79296 2.1678,2.79296l-0.50534,2.25014c-0.83681,1.36945 -1.7483,2.69209 -2.7099,3.97968l0.20699,0.10349l-2.21185,4.42369c-0.40086,0.84561 -1.26228,1.43041 -2.26029,1.43041c-1.38071,0 -2.5,-1.11929 -2.5,-2.5v-4.99999v-0.00001c-0.00017,-14.28907 0.34898,-28.64658 -0.33239,-42.9207c-0.78426,-16.46939 -1.55577,-32.93853 -2.44389,-49.40267c-0.43247,-8.01714 0.06478,-16.76882 -1.31307,-24.66883c-0.71066,-4.07467 -2.47189,-8.28701 -3.78236,-12.21724c0,0 -0.79057,-2.37171 1.58114,-3.16228c2.37171,-0.79057 3.16228,1.58114 3.16228,1.58114c1.38707,4.16247 3.21214,8.62506 3.96459,12.93929c1.41298,8.10145 0.93681,17.03975 1.38016,25.25859c0.88869,16.47463 1.66073,32.95428 2.44549,49.43416c0.60708,12.77895 0.40102,25.62248 0.34861,38.42611c0.06747,-0.10251 0.13322,-0.20577 0.19677,-0.30999l-0.18772,-0.27018c0,0 0.31258,-2.48038 2.79296,-2.1678z" fill="#000000" stroke="none" stroke-width="0.5"/><path d="M265.60001,258.39999c-2.5,0 -2.5,-2.5 -2.5,-2.5l0.00629,-4.17722c2.38446,-16.86664 3.98255,-33.55574 4.6705,-50.47607c-5.95163,3.76411 -12.02486,8.13997 -18.60592,10.11753c-2.28414,0.68637 -4.79446,2.57752 -6.97258,1.60583c-1.61968,-0.72256 -0.91498,-3.44204 -1.09783,-5.20613c-0.38598,-3.72404 0.21316,-6.61764 0.69984,-10.28207c1.88969,-14.22834 5.29971,-28.20637 5.29971,-42.58187c0,0 0,-2.5 2.5,-2.5c2.5,0 2.5,2.5 2.5,2.5c0,13.03412 -2.96696,25.4135 -4.68275,38.28655c-0.43329,3.25082 -1.0826,6.47972 -1.30548,9.7517c-0.10952,1.60781 0.28706,3.25092 -0.01132,4.83459c-0.0194,0.10299 -0.09386,0.2226 -0.19647,0.34468c1.79149,-1.29462 3.88206,-2.18126 5.86647,-3.16935c5.57487,-2.77587 10.82144,-6.52351 16.21148,-9.69559c0.04984,-1.79435 0.08935,-3.59182 0.1184,-5.39289c0.1613,-10.00337 -0.67829,-20.08312 0.48495,-29.95969h-0.48527c0,0 0,-5 0,-5c0,-1.38071 1.11929,-2.5 2.5,-2.5c0.89124,0 1.67355,0.46636 2.11622,1.16837l1.99736,3.06326l-0.14284,0.09314l0.36323,0.32741c1.68889,8.11467 1.93082,16.85678 5.37354,24.53485c1.85162,4.12954 4.74142,5.2351 2.50908,10.46914c-0.5792,1.35802 -2.21655,1.9713 -3.46674,2.75659c-2.06245,1.2955 -4.29402,2.29689 -6.45487,3.42366c-0.55243,18.04071 -2.20769,35.88925 -4.80126,53.84081l0.00629,3.82278c0,0 0,2.5 -2.5,2.5zM273.03419,192.44038c1.24448,-0.65924 2.49843,-1.3006 3.76024,-1.92528c0.52764,-0.26122 1.33695,-0.23919 1.58898,-0.77127c0.87724,-1.85198 -2.3618,-5.49839 -2.63587,-6.10579c-1.18474,-2.62566 -2.01161,-5.35504 -2.64749,-8.13607c0.00003,3.13268 0.00006,6.26535 -0.00004,9.39803c-0.00008,2.51829 -0.02216,5.03149 -0.06581,7.54038z" fill="#000000" stroke="none" stroke-width="0.5"/></g></g></svg>