<svg version="1.1" xmlns="http://www.w3.org/2000/svg" xmlns:xlink="http://www.w3.org/1999/xlink" width="154" height="218" viewBox="0,0,154,218"><g transform="translate(-163,-71)"><g data-paper-data="{&quot;isPaintingLayer&quot;:true}" fill-rule="nonzero" stroke-linecap="butt" stroke-linejoin="miter" stroke-miterlimit="10" stroke-dasharray="" stroke-dashoffset="0" style="mix-blend-mode: normal"><path d="M164,288v-216h152v216z" fill="#a300f5" stroke="#000000" stroke-width="2"/><path d="M225.60001,237.39999c-2.5,0 -2.5,-2.5 -2.5,-2.5v-1c0.00005,-11.16426 2.3445,-22.5355 4.01399,-33.59141c0.06654,-4.9479 -0.21285,-10.08614 0.22041,-15.01346c0.5895,-6.70421 2.8578,-13.16992 3.78977,-19.74189c0.46071,-3.24879 -0.21292,-6.56844 -0.01689,-9.84387c0.34126,-5.70203 1.82395,-11.42569 2.45585,-17.11603c0.74402,-6.69989 0.60378,-14.10779 2.66516,-20.48391c0,0 0.79057,-2.37171 3.16228,-1.58114c2.37171,0.79057 1.58114,3.16228 1.58114,3.16228c-1.5611,4.50702 -1.35686,9.71428 -1.887,14.48551c-0.80657,7.25909 -2.56915,14.65108 -2.99199,21.91455c-0.06191,1.06339 0.09444,9.35227 -0.01689,10.15613c-0.89907,6.49213 -3.1788,12.86902 -3.76065,19.48634c-0.4321,4.91412 -0.14041,10.04995 -0.21785,14.98334c-1.62384,10.91989 -3.99738,22.16297 -3.99733,33.18356v1c0,0 0,2.5 -2.5,2.5z" fill="#000000" stroke="none" stroke-width="0.5"/></g></g></svg>