<svg version="1.1" xmlns="http://www.w3.org/2000/svg" xmlns:xlink="http://www.w3.org/1999/xlink" width="154" height="218" viewBox="0,0,154,218"><g transform="translate(-163,-71)"><g data-paper-data="{&quot;isPaintingLayer&quot;:true}" fill-rule="nonzero" stroke-linecap="butt" stroke-linejoin="miter" stroke-miterlimit="10" stroke-dasharray="" stroke-dashoffset="0" style="mix-blend-mode: normal"><path d="M164,288v-216h152v216z" fill="#09c600" stroke="#000000" stroke-width="2"/><path d="M226.91259,263.41961c2.48038,0.31258 2.1678,2.79296 2.1678,2.79296l-0.50534,2.25014c-0.83681,1.36945 -1.7483,2.69209 -2.7099,3.97968l0.20699,0.10349l-2.21185,4.42369c-0.40086,0.84561 -1.26228,1.43041 -2.26029,1.43041c-1.38071,0 -2.5,-1.11929 -2.5,-2.5v-4.99999v-0.00001c-0.00017,-14.28907 0.34898,-28.64658 -0.33239,-42.9207c-0.78426,-16.46939 -1.55577,-32.93853 -2.44389,-49.40267c-0.43247,-8.01714 0.06478,-16.76882 -1.31307,-24.66883c-0.71066,-4.07467 -2.47189,-8.28701 -3.78236,-12.21724c0,0 -0.79057,-2.37171 1.58114,-3.16228c2.37171,-0.79057 3.16228,1.58114 3.16228,1.58114c1.38707,4.16247 3.21214,8.62506 3.96459,12.93929c1.41298,8.10145 0.93681,17.03975 1.38016,25.25859c0.88869,16.47463 1.66073,32.95428 2.44549,49.43416c0.60708,12.77895 0.40102,25.62248 0.34861,38.42611c0.06747,-0.10251 0.13322,-0.20577 0.19677,-0.30999l-0.18772,-0.27018c0,0 0.31258,-2.48038 2.79296,-2.1678z" fill="#000000" stroke="none" stroke-width="0.5"/><path d="M241.62063,224.37209c-1.4721,2.02062 -3.49272,0.54852 -3.49272,0.54852l-3.13187,-2.30909c-1.2517,-1.62801 -3.07096,-2.94776 -3.7551,-4.88402c-1.97177,-5.58051 1.67899,-14.54502 3.20805,-19.89908c2.33609,-8.17987 5.45943,-15.20671 9.21699,-22.82699c0.21066,-0.42722 4.47333,-9.09235 4.61761,-9.29819c2.79499,-3.9875 7.24715,-7.60275 10.62673,-11.12058c3.64401,-3.79308 7.5152,-6.76633 11.72245,-9.91238c1.49378,-1.117 2.78979,-2.5829 4.50156,-3.32377c1.71177,-0.74087 3.66956,-0.67124 5.50434,-1.00686c6.99174,-1.16625 14.71234,-1.13664 21.19309,2.38483c10.31538,5.60511 14.78792,19.95418 13.11335,30.97286c-1.08549,7.14253 -4.66802,12.78245 -8.45835,18.70484c-5.18221,8.0972 -10.27416,16.17087 -15.99717,23.89693c-8.48868,11.45972 -17.02194,22.85732 -25.77676,34.11511c-2.10615,2.7083 -4.34341,5.33281 -6.80953,7.71798c-1.42797,1.38109 -2.5122,3.3149 -4.34659,4.07747c-5.12153,2.12903 -6.98326,-1.60677 -8.86687,-5.48501c-2.15452,-4.43605 -1.58984,-9.10149 -1.58984,-13.82469c0,-5.40838 -0.17136,-10.82682 0.2404,-16.2212c1.23921,-16.10975 6.3359,-31.72435 11.25762,-47.09078c2.42076,-7.55801 4.73145,-15.04883 8.25908,-21.89394c-0.11308,0.11568 -0.22591,0.23228 -0.33849,0.34983c-3.19858,3.33975 -7.48955,6.74697 -10.14068,10.52923c-1.84026,2.62542 -2.80958,5.76403 -4.22752,8.63958c-2.80616,5.69086 -5.78173,11.07316 -7.5202,17.18169c-1.32126,4.64256 -2.6198,9.21783 -3.67439,13.92884c-0.36604,1.63514 -1.61086,5.97778 -0.99674,7.74922c0.41951,1.2101 1.66123,1.94978 2.49185,2.92467l2.62118,1.88222c0,0 2.02062,1.4721 0.54852,3.49272zM276.12829,146.5128c0.19021,1.20423 -0.76051,2.15496 -0.76051,2.15496c-8.91049,8.87296 -12.25334,20.72261 -16.00803,32.44539c-4.80121,14.99019 -9.82538,30.2362 -11.03406,45.94913c-0.53594,6.91067 -0.20379,13.90647 -0.22567,20.83771c-0.01046,3.3132 0.49848,7.12404 2.71077,9.81275c1.00153,1.21721 2.46589,-1.97845 3.557,-3.11606c2.23084,-2.32592 4.42065,-4.70398 6.39661,-7.24998c8.72043,-11.23617 17.2413,-22.59446 25.70742,-34.02372c5.65509,-7.63438 10.6827,-15.61465 15.8036,-23.61606c3.40918,-5.32684 6.74901,-10.32913 7.72646,-16.76083c1.37438,-9.04346 -2.13348,-21.23019 -10.63361,-25.87061c-5.41884,-2.95827 -12.0823,-2.81086 -17.89318,-1.80629c-1.45158,0.22199 -3.0071,0.0827 -4.35475,0.66597c-0.35414,0.15328 -0.68119,0.35186 -0.99204,0.57763z" fill="#000000" stroke="none" stroke-width="0.5"/></g></g></svg>