<svg version="1.1" xmlns="http://www.w3.org/2000/svg" xmlns:xlink="http://www.w3.org/1999/xlink" width="154" height="218" viewBox="0,0,154,218"><g transform="translate(-163,-71)"><g data-paper-data="{&quot;isPaintingLayer&quot;:true}" fill-rule="nonzero" stroke-linecap="butt" stroke-linejoin="miter" stroke-miterlimit="10" stroke-dasharray="" stroke-dashoffset="0" style="mix-blend-mode: normal"><path d="M164,288v-216h152v216z" fill="#66abff" stroke="#000000" stroke-width="2"/><path d="M198.86812,217.52486c-2.40369,-0.68722 -1.71647,-3.09091 -1.71647,-3.09091l0.05745,-0.01044c0.60471,-8.17562 1.65631,-16.31493 2.74539,-24.45355c-5.26067,-0.78988 -10.55128,-1.35158 -15.90728,-1.81455c0,0 -2.49071,-0.21534 -2.27537,-2.70605c0.21534,-2.49071 2.70605,-2.27537 2.70605,-2.27537c5.43367,0.46988 10.80247,1.04153 16.14089,1.84062c1.16747,-8.73888 2.28237,-17.48528 2.8381,-26.28326c0,0 0.15808,-2.495 2.65308,-2.33692c2.495,0.15808 2.33692,2.65308 2.33692,2.65308c-0.56948,8.96168 -1.71841,17.87058 -2.91005,26.77259c2.59818,0.46413 5.19165,0.99165 7.78442,1.59717l0.31376,-0.06552c0,0 2.5,0 2.5,2.5c0,2.5 -2.5,2.5 -2.5,2.5l-1.45093,-0.06552c-2.43571,-0.56889 -4.87193,-1.06662 -7.31224,-1.50621c-1.06745,7.99106 -2.08898,15.98343 -2.67622,24.01034l-0.23659,1.01801c0,0 -0.68722,2.40369 -3.09091,1.71647z" fill="#000000" stroke="none" stroke-width="0.5"/><path d="M244.55751,240.07534c-1.11723,-2.23647 1.11924,-3.3537 1.11924,-3.3537l3.4521,-1.72315c7.60489,-3.22753 14.85026,-6.63704 22.07742,-10.64197c3.75374,-2.0626 7.4518,-4.5268 10.27364,-7.85114c1.90156,-2.24018 3.03579,-5.03206 4.56453,-7.5415c2.72858,-4.479 4.85501,-7.46356 5.85705,-12.63c0.64579,-3.32964 3.32157,-9.57149 1.14983,-12.87154c-0.74004,-1.12452 -2.18068,-1.582 -3.21922,-2.43852c-1.03613,-0.85453 -1.73057,-2.25007 -2.99944,-2.69024c-0.99336,-0.34459 -2.06078,0.42523 -3.10167,0.57378c-3.00831,0.42932 -6.01451,1.19837 -8.77689,2.46466c-4.4764,2.05202 -8.11423,5.26604 -12.49047,7.35197l-3.93526,2.93323c-0.42032,0.32057 -0.94528,0.51094 -1.5147,0.51094c-1.38071,0 -2.5,-1.11929 -2.5,-2.5c0,-0.5877 0.20279,-1.12803 0.54221,-1.55484l2.04288,-2.61942l0.01368,0.01067l0.01485,-0.04656c4.27774,-5.0819 7.70404,-10.66385 11.46874,-16.12729c6.34568,-9.20901 12.98743,-18.0545 18.7322,-27.66099c1.17208,-3.40919 1.98684,-5.79215 3.18184,-9.21346c0.5138,-1.47102 1.14008,-2.90663 1.55179,-4.40943c0.27167,-0.99164 1.27424,-3.53721 0.3618,-3.06327c-1.96424,1.02029 -4.10388,1.66468 -6.11104,2.5977c-3.60275,1.67472 -7.19635,5.45067 -10.36915,7.82986c-10.19509,7.645 -18.33651,17.57384 -25.84913,27.78797c0,0 -1.48151,2.01373 -3.49525,0.53222c-2.01373,-1.48151 -0.53222,-3.49525 -0.53222,-3.49525c6.77026,-9.20006 14.0479,-18.24399 22.74789,-25.71863c3.79266,-3.25848 8.11183,-6.12225 12.12403,-9.10865c2.40528,-1.79031 5.26687,-2.9446 8.11608,-3.87873c3.6375,-1.19257 5.86854,-3.44423 8.10052,2.13074c1.17929,2.94558 -1.03435,7.8591 -1.92136,10.43382c-1.19099,3.45707 -2.16105,6.21932 -3.37156,9.68238c-5.84431,9.88774 -12.64469,18.9506 -19.15421,28.39793c-1.56977,2.27823 -3.08393,4.57437 -4.62338,6.84756c0.02403,-0.01323 0.04803,-0.02649 0.07201,-0.03976c4.84984,-2.68444 9.47981,-4.46621 14.97542,-5.03939c1.69195,-0.17647 3.4686,-0.93908 5.08658,-0.41374c1.89559,0.61548 3.21038,2.36453 4.76446,3.61228c1.47186,1.18174 3.34874,2.04857 4.30966,3.67322c3.05377,5.16308 0.57631,11.22651 -0.48688,16.49057c-1.16439,5.76506 -3.46198,9.28624 -6.49165,14.25951c-1.65195,2.7117 -2.92763,5.69695 -4.9775,8.12188c-3.23484,3.82671 -7.40613,6.64148 -11.7072,9.04287c-7.33293,4.06354 -14.689,7.53811 -22.40659,10.80881l-3.31199,1.65585c0,0 -2.23647,1.11723 -3.3537,-1.11924z" fill="#000000" stroke="none" stroke-width="0.5"/></g></g></svg>