<svg version="1.1" xmlns="http://www.w3.org/2000/svg" xmlns:xlink="http://www.w3.org/1999/xlink" width="154" height="218" viewBox="0,0,154,218"><g transform="translate(-163,-71)"><g data-paper-data="{&quot;isPaintingLayer&quot;:true}" fill-rule="nonzero" stroke-linecap="butt" stroke-linejoin="miter" stroke-miterlimit="10" stroke-dasharray="" stroke-dashoffset="0" style="mix-blend-mode: normal"><path d="M164,288v-216h152v216z" fill="#a300f5" stroke="#000000" stroke-width="2"/><path d="M226.91259,263.41961c2.48038,0.31258 2.1678,2.79296 2.1678,2.79296l-0.50534,2.25014c-0.83681,1.36945 -1.7483,2.69209 -2.7099,3.97968l0.20699,0.10349l-2.21185,4.42369c-0.40086,0.84561 -1.26228,1.43041 -2.26029,1.43041c-1.38071,0 -2.5,-1.11929 -2.5,-2.5v-4.99999v-0.00001c-0.00017,-14.28907 0.34898,-28.64658 -0.33239,-42.9207c-0.78426,-16.46939 -1.55577,-32.93853 -2.44389,-49.40267c-0.43247,-8.01714 0.06478,-16.76882 -1.31307,-24.66883c-0.71066,-4.07467 -2.47189,-8.28701 -3.78236,-12.21724c0,0 -0.79057,-2.37171 1.58114,-3.16228c2.37171,-0.79057 3.16228,1.58114 3.16228,1.58114c1.38707,4.16247 3.21214,8.62506 3.96459,12.93929c1.41298,8.10145 0.93681,17.03975 1.38016,25.25859c0.88869,16.47463 1.66073,32.95428 2.44549,49.43416c0.60708,12.77895 0.40102,25.62248 0.34861,38.42611c0.06747,-0.10251 0.13322,-0.20577 0.19677,-0.30999l-0.18772,-0.27018c0,0 0.31258,-2.48038 2.79296,-2.1678z" fill="#000000" stroke="none" stroke-width="0.5"/><path d="M275.43409,233.99589c-8.1134,-27.58554 -13.81064,-55.54293 -20.27006,-83.53375c0,0 -0.56215,-2.43598 1.87383,-2.99813c2.43598,-0.56215 2.99813,1.87383 2.99813,1.87383c6.43723,27.89467 12.10948,55.75667 20.19493,83.24722c1.8658,6.40985 2.89698,14.59858 2.8641,21.27761c-0.0279,5.66806 -0.99501,11.31781 -0.99501,17.03732v4c0,1.38071 -1.11929,2.5 -2.5,2.5c-1.38071,0 -2.5,-1.11929 -2.5,-2.5v-4c0,-12.34801 1.9388,-24.79328 -1.66592,-36.9041z" fill="#000000" stroke="none" stroke-width="0.5"/></g></g></svg>