<svg version="1.1" xmlns="http://www.w3.org/2000/svg" xmlns:xlink="http://www.w3.org/1999/xlink" width="689" height="399" viewBox="0,0,689,399"><g transform="translate(24.5,19.5)"><g data-paper-data="{&quot;isPaintingLayer&quot;:true}" fill-rule="nonzero" stroke="none" stroke-linecap="butt" stroke-linejoin="miter" stroke-miterlimit="10" stroke-dasharray="" stroke-dashoffset="0" style="mix-blend-mode: normal"><path d="M-24.5,379.5v-399h689v399z" fill-opacity="0.86275" fill="#0a0000" stroke-width="0"/><path d="M42.47422,24.90684c-1.76777,1.76777 -3.53553,0 -3.53553,0l-1,-1c-3.06368,-3.25103 -6.85383,-3.55289 -10.85655,-2.54882c0.15596,0.38571 2.08312,6.32049 2.09203,6.3806c0.74159,5.00037 0.37165,10.06157 1.01355,15.095c0.17386,1.36333 0.85043,2.63379 1,4c0.50392,4.60295 -0.58483,9.41408 0,14c0.17386,1.36333 0.81018,2.6388 1,4c0.4606,3.30301 0.01873,6.96642 0.01873,10.30546c0,0 0,2.5 -2.5,2.5c-2.5,0 -2.5,-2.5 -2.5,-2.5c0,-3.12868 0.47136,-6.60658 0.01873,-9.69454c-0.19932,-1.35984 -0.83268,-2.63585 -1,-4c-0.56464,-4.60338 0.51946,-9.39736 0,-14c-0.15413,-1.3657 -0.83268,-2.63585 -1,-4c-0.3208,-2.6154 0.39584,-5.29788 0.01355,-7.905c-0.65778,-4.48585 -1.87617,-9.02905 -2.54585,-13.44346c-0.19234,0.04693 -0.37707,0.10277 -0.5514,0.17061c-0.39431,0.65881 -0.8751,1.27076 -1.18925,1.97077c-0.00816,0.01818 -0.01626,0.03638 -0.0243,0.0546c0.12596,0.41488 0.31166,0.84341 0.24623,1.24748c-0.20751,1.2815 -0.42684,2.6717 -1.22193,3.69792c-0.06814,0.08795 -0.13792,0.17436 -0.2092,0.25934l0.04354,0.02903l-1.97849,2.96774c-0.44514,0.68925 -1.2201,1.14551 -2.10163,1.14551c-1.38071,0 -2.5,-1.11929 -2.5,-2.5v-3l0.42916,0l-0.23886,-0.95671c0.72769,-0.78587 1.45538,-1.57175 2.18307,-2.35762c0.17278,-0.5461 0.38161,-1.16586 0.63152,-1.81524c-0.06318,-0.73776 -0.09198,-1.45843 0.29092,-2.05008c0.40615,-0.62758 0.94981,-1.14671 1.56145,-1.59606c1.35215,-1.9546 3.22696,-3.36768 5.79236,-2.77063c6.15985,-1.88679 12.8829,-0.77414 17.61815,3.77857l1,1c0,0 1.76777,1.76777 0,3.53553z" fill="#61ff00" stroke-width="0.5"/><text transform="translate(21.70645,105.13907) scale(0.5,0.5)" font-size="40" xml:space="preserve" fill="#61ff00" fill-rule="nonzero" stroke="none" stroke-width="1" stroke-linecap="butt" stroke-linejoin="miter" stroke-miterlimit="10" stroke-dasharray="" stroke-dashoffset="0" font-family="Sans Serif" font-weight="normal" text-anchor="start" style="mix-blend-mode: normal"><tspan x="0" dy="0">Klick das Flag zu neuspielen.</tspan></text></g></g></svg>