<svg version="1.1" xmlns="http://www.w3.org/2000/svg" xmlns:xlink="http://www.w3.org/1999/xlink" width="154" height="218" viewBox="0,0,154,218"><defs><linearGradient x1="240" y1="72" x2="240" y2="288" gradientUnits="userSpaceOnUse" id="color-1"><stop offset="0" stop-color="#910000"/><stop offset="1" stop-color="#000000"/></linearGradient></defs><g transform="translate(-163,-71)"><g data-paper-data="{&quot;isPaintingLayer&quot;:true}" fill-rule="nonzero" stroke-linecap="butt" stroke-linejoin="miter" stroke-miterlimit="10" stroke-dasharray="" stroke-dashoffset="0" style="mix-blend-mode: normal"><path d="M164,288v-216h152v216z" fill="url(#color-1)" stroke="#000000" stroke-width="2"/><path d="M192.58769,120.44189l-0.13487,-0.33718l2.2783,-0.91132c0.30123,-0.12865 0.63286,-0.19986 0.98112,-0.19986c1.38071,0 2.5,1.11929 2.5,2.5c0,0.92661 -0.50412,1.73548 -1.25305,2.16731l-2.29164,1.37499l-0.05247,-0.08745l-0.14021,0.19185c-2.42369,0.93308 -4.87534,1.7935 -7.33693,2.62213c-0.8397,1.49744 -1.67945,2.99859 -2.06938,4.65366c-1.10889,4.70678 -1.01036,9.57732 -0.73389,14.40473c1.95668,-2.10126 4.67334,-3.81585 6.45613,-5.1711l1.54833,-1.17141c0,0 1.9937,-1.50836 3.50206,0.48534c1.50836,1.9937 -0.48534,3.50206 -0.48534,3.50206l-1.54833,1.17141c-2.37932,1.79064 -4.95184,3.36096 -6.61374,5.94036c-0.36795,0.57109 -0.13708,1.38513 -0.45116,1.98753c-0.00678,0.013 -0.01357,0.026 -0.02037,0.03899l0.00832,0.00249l-1.41984,4.73557c-0.29092,1.05832 -1.26007,1.83581 -2.41081,1.83581c-1.27327,0 -2.32422,-0.95187 -2.48007,-2.18283l-0.70191,-4.91336l0.03037,-0.00434l-0.04343,-0.10391c-0.40202,-7.2599 -1.19481,-14.72473 0.54457,-21.89011c0.23375,-0.96291 1.15334,-2.91898 1.99317,-4.60712c-0.42461,-0.44808 -0.68506,-1.05327 -0.68506,-1.7193c0,-1.18975 0.83109,-2.18539 1.9444,-2.43804l4.42229,-1.10557c1.52554,-0.37946 3.08855,-0.63188 4.66345,-0.77133z" fill="#910000" stroke="none" stroke-width="0.5"/><path d="M218.02749,153.38318c0.59475,0.32628 1.16316,0.94994 1.16316,2.142c0,2.5 -2.5,2.5 -2.5,2.5l-2.76405,-1.5152c-1.08228,-2.53469 -1.8785,-3.94906 -1.87843,-5.69797c-0.70656,0.6461 -1.43899,1.25509 -2.26662,1.7275c-0.04112,0.02347 -0.08234,0.04671 -0.12367,0.06974l0.00622,0.00978l-4.18678,2.66432c-0.39421,0.25975 -0.86631,0.41091 -1.37371,0.41091c-1.38071,0 -2.5,-1.11929 -2.5,-2.5c0,-0.10223 0.00614,-0.20303 0.01806,-0.30204l0.26969,-2.51253l0.11492,0.01234l-0.05522,-0.34922c2.25043,-5.65422 4.48649,-9.22229 8.77614,-13.5343c0,0 1.76777,-1.76777 3.53553,0c1.76777,1.76777 0,3.53553 0,3.53553c-2.44391,2.42984 -4.1124,4.52044 -5.52527,7.07376c0.45199,-0.39822 0.91891,-0.77753 1.39157,-1.13954l2.90548,-3.67429c2.05373,3.99072 3.3663,7.2541 4.99298,11.07922z" fill="#910000" stroke="none" stroke-width="0.5"/><path d="M236.56763,161.58561c0,-0.24245 0.02351,-0.46139 0.06598,-0.6591c-0.00605,0.0038 -0.00924,0.00571 -0.00924,0.00571l-4.22351,1.68019c-1.0518,-1.31351 -2.38341,-2.44534 -3.15539,-3.94054c-1.19728,-2.31895 -0.49645,-5.20564 -1.0163,-7.76313c-1.82365,-8.97182 -2.63186,-19.15811 -6.78178,-27.36481c0,0 -1.11803,-2.23607 1.11803,-3.3541c2.23607,-1.11803 3.3541,1.11803 3.3541,1.11803c3.88339,7.84462 4.10552,16.0042 5.97748,24.42454c0.68779,3.09377 3.00185,7.96705 2.00299,11.2994l0.15191,-0.38706c0,0 2.14373,-1.28624 3.42997,0.85749c0.44411,0.74019 0.47931,1.37815 0.33503,1.89623c0.62525,-0.31287 1.25074,-0.31287 1.25074,-0.31287l0.56317,0.73223c0.50196,-0.47044 1.12008,-0.84172 1.50589,-1.41131c3.21158,-4.74148 -4.89567,-5.20961 -5.54459,-9.89951c-0.52163,-3.76992 4.12744,-9.50476 7.37219,-10.74603c1.63431,-0.6252 3.49132,0.24099 5.23698,0.36149c0,0 2.48471,0.27608 2.20863,2.76079c-0.27608,2.48471 -2.76079,2.20863 -2.76079,2.20863c-1.05146,-0.1903 -2.13957,-0.90543 -3.15439,-0.57089c-0.61509,0.20277 -4.22656,4.09591 -3.97364,5.1463c0.28903,1.20038 1.95151,1.5336 2.77458,2.45393c1.38362,1.54713 3.42746,2.87998 3.81861,4.91837c0.78646,4.09849 -1.72998,6.00147 -3.94793,8.31376l-4.0987,0.73223c0,0 -2.5,0 -2.5,-2.5z" fill="#910000" stroke="none" stroke-width="0.5"/><path d="M295.96655,186.88023c-2.45145,0.49029 -2.94174,-1.96116 -2.94174,-1.96116l-0.22062,-1.64476c-3.50138,-6.56509 -7.59131,-12.9058 -10.37284,-19.8314c-1.18139,-2.94148 -2.52944,-5.82751 -3.46102,-8.85739c-0.30836,-1.00292 0.10253,-2.16243 -0.29357,-3.13405c-0.21535,-0.52825 -0.02054,1.18642 -0.297,1.6854c-0.74072,1.33692 -1.86849,2.42413 -2.69292,3.71111c-1.396,2.17923 -1.75163,4.88789 -2.94699,7.18316l-0.43113,2.58679c-0.179,1.20503 -1.21791,2.12954 -2.47274,2.12954c-1.38071,0 -2.5,-1.11929 -2.5,-2.5c0,-0.1348 0.01067,-0.26711 0.03121,-0.39613l0.44653,-3.12572c0,-0.00005 0,-0.00009 0.00001,-0.00014c-0.91925,1.16493 -4.63597,6.05104 -6.18093,6.40101c-3.60332,0.81625 -7.73828,-2.99009 -9.0245,-5.65182c-2.68168,-5.54949 3.07141,-13.23403 6.76967,-16.39669c0,0 1.92055,-1.60046 3.52101,0.32009c1.60046,1.92055 -0.32009,3.52101 -0.32009,3.52101c-2.72808,2.19625 -4.44414,4.76272 -5.1951,8.28155c-0.16459,0.77122 -0.50527,1.65355 -0.15609,2.36062c0.50043,1.01333 1.62283,1.57451 2.46926,2.3234c0.18789,0.16624 0.40745,0.53736 0.6271,0.41616c1.80197,-0.99435 2.44815,-3.31107 3.75042,-4.90479l1.02949,-1.25827c0,0 1.24495,-1.52161 2.87618,-0.7621c0.24998,-10.30257 0.15338,-20.61033 0.75871,-30.90089c0,0 0.14681,-2.49569 2.64249,-2.34888c2.49569,0.14681 2.34888,2.64249 2.34888,2.64249c-0.4862,8.26537 -0.51619,16.54146 -0.64197,24.81729c0.57236,-0.7404 1.10556,-1.34948 1.54465,-1.75955c1.45883,-1.36242 3.09854,-3.85627 5.00977,-3.28047c1.46557,0.44153 5.30967,8.84035 6.01368,10.63764c3.26455,8.33419 7.34572,15.83705 11.55961,23.73808l0.71176,3.01712c0,0 0.49029,2.45145 -1.96116,2.94174z" fill="#910000" stroke="none" stroke-width="0.5"/><path d="M170.43552,221.15114c0.5726,-2.43354 3.00614,-1.86094 3.00614,-1.86094l3.05809,0.71955c1.5493,0.36795 3.07431,0.85983 4.64789,1.10384c1.2013,0.18629 2.44712,-0.03963 3.64246,0.18174c1.05251,0.19492 1.96374,1.00776 3.03313,1.05454c0.46195,0.02021 -0.77744,-0.55801 -0.9961,-0.96543c-1.07362,-2.00047 -1.74529,-4.27411 -3.21509,-6.0045c-0.99434,-1.17063 -1.94875,-2.38668 -3.07154,-3.43473c-3.15939,-2.9491 -8.83104,-3.98406 -8.29177,-9.60793c0.40015,-4.17294 4.31475,-5.00694 7.30194,-6.4019c3.91809,-1.82967 8.21438,-4.76672 12.69885,-0.69206c1.1412,1.03691 -0.49516,3.04382 -0.74274,4.56574c0,0 -0.92848,2.32119 -3.24967,1.39272c-1.67999,-0.67199 -1.6577,-2.07353 -1.51719,-2.79657c-1.68736,0.70431 -3.42265,1.29962 -5.08339,2.06509c-1.52909,0.70479 -4.32446,0.7327 -4.43767,2.41258c-0.15025,2.22942 5.19427,3.9745 6.62622,5.31006c3.2053,2.98954 6.99473,7.43221 7.81565,11.9124c0.33986,1.8548 1.24452,4.41908 -0.18038,5.65416c-1.75641,1.52242 -4.62955,0.46499 -6.95305,0.52895c-3.98009,0.10957 -5.11203,-0.46429 -9.17275,-1.41159l-3.05809,-0.71955c0,0 -2.43354,-0.5726 -1.86094,-3.00614z" fill="#910000" stroke="none" stroke-width="0.5"/><path d="M211.98477,222.95078c-0.98987,7.94656 -3.83971,16.05435 -5.66045,23.7925l-0.70793,3.00868c-0.24051,1.12955 -1.2439,1.97681 -2.44517,1.97681c-1.25484,0 -2.29374,-0.92451 -2.47274,-2.12954l-0.45943,-2.75659l0.00823,-0.00137c-0.00508,-0.01411 -0.01012,-0.02825 -0.01512,-0.0424c-0.56027,-1.58535 -0.43579,-3.33451 -0.65282,-5.00188c-1.26308,-9.70415 -1.4154,-21.69006 4.83109,-29.93194c0.62351,-0.82268 1.49448,-2.05498 2.53144,-3.3611c-0.08574,-1.32689 -0.16395,-2.64432 -0.20873,-3.94298c0,0 -0.08616,-2.49851 2.41236,-2.58467c1.69945,-0.0586 2.28282,1.0786 2.48214,1.81198c1.5746,-1.10599 3.23398,-1.70619 4.843,-1.24364c5.34878,1.53765 5.02062,12.7037 2.70546,15.99119c-1.11112,1.57776 -3.29665,2.00692 -4.94497,3.01038zM204.03075,235.95952c1.21048,-4.37571 2.36657,-8.80022 2.93796,-13.16159c-0.58785,-1.14203 -0.18102,-2.0321 0.266,-2.5793c0.08394,-1.16248 0.11316,-2.33924 0.10609,-3.52366c-0.67053,1.13743 -1.23534,2.38523 -1.68394,3.88411c-1.56456,5.22759 -1.93336,10.21384 -1.62611,15.38044zM212.07943,210.61837c0.13315,2.12053 0.25064,4.25182 0.25761,6.36084c1.02076,-0.35492 2.15419,-0.56926 2.80052,-1.39131c0.89762,-1.14164 0.24641,-5.97028 0.13178,-7.00702c-0.04628,-0.41859 0.19167,-1.17249 -0.22344,-1.24352c-0.48749,-0.08341 -0.74673,0.65248 -1.07647,1.02109c-0.65474,0.73192 -1.26405,1.50304 -1.89001,2.25991z" fill="#910000" stroke="none" stroke-width="0.5"/><path d="M243.41792,214.99941c-0.26847,2.48554 -2.75402,2.21707 -2.75402,2.21707l-4.12891,-0.47186c-1.24071,-0.52977 -2.56954,-0.89966 -3.80751,-1.43439c0.16187,0.76779 0.30312,1.53939 0.42126,2.31408l0.02752,0.83613c0,0 0,2.5 -2.5,2.5c-2.5,0 -2.5,-2.5 -2.5,-2.5l0.02752,-0.09625c-0.41809,-2.85601 -1.21437,-5.66308 -2.20794,-8.37314c0,0 -0.82608,-2.27172 1.38016,-3.15984c0.13521,-3.12556 1.50972,-6.406 2.91175,-9.03361c0.88992,-1.66786 1.21348,-4.07709 2.93836,-4.85071c10.80847,-4.84764 12.1843,15.26415 2.69149,16.35629c-1.44714,0.16649 -2.53145,-1.22345 -3.69609,-2.26881c-0.03519,1.32332 0.4268,2.52933 1.82334,3.36851c1.14931,0.69062 2.48863,0.9991 3.73294,1.49865l3.42305,0.34386c0,0 2.48554,0.26847 2.21707,2.75402zM233.78706,202.0977c0.49491,0.18516 0.82059,0.45657 0.82059,0.45657c0.36113,0.58469 0.39808,1.70266 1.08338,1.75406c0.59641,0.04473 0.55493,-1.06145 0.78378,-1.61402c0.37576,-0.90727 0.99508,-1.77936 1.0281,-2.76081c0.03601,-1.07043 -1.25281,-3.41805 -1.91751,-2.57823c-0.56385,0.7124 -0.45142,1.76564 -0.79113,2.60828c-0.23401,0.58044 -0.61205,1.31596 -1.0072,2.13415z" fill="#910000" stroke="none" stroke-width="0.5"/><path d="M228.0648,190.39434c-2.23607,1.11803 -3.3541,-1.11803 -3.3541,-1.11803l-1.86475,-3.7295c0,0 -1.11803,-2.23607 1.11803,-3.3541c2.23607,-1.11803 3.3541,1.11803 3.3541,1.11803l1.86475,3.7295c0,0 1.11803,2.23607 -1.11803,3.3541z" fill="#910000" stroke="none" stroke-width="0.5"/><path d="M260.51223,219.56187c-2.5,0 -2.5,-2.5 -2.5,-2.5l0.00005,-3.24826c-0.09018,-7.95519 -1.18627,-15.96922 -2.74862,-23.76648c0,0 -0.49029,-2.45145 1.96116,-2.94174c2.45145,-0.49029 2.94174,1.96116 2.94174,1.96116c1.62043,8.11666 2.74049,16.43779 2.84563,24.71697l0.00005,3.27836c0,0 0,2.5 -2.5,2.5z" fill="#910000" stroke="none" stroke-width="0.5"/><path d="M282.1259,213.79856c0,2.5 -2.5,2.5 -2.5,2.5h-0.93237c-2.81609,-0.04256 -4.97,0.26562 -7.05979,-0.50034c-1.47484,0.86048 -2.92149,1.66873 -4.22363,2.46448c0,0 -2.1332,1.30363 -3.43683,-0.82958c-1.30363,-2.1332 0.82958,-3.43683 0.82958,-3.43683c0.83294,-0.50902 1.72174,-1.01516 2.63333,-1.5337c-5.22211,-7.39048 5.38946,-21.91154 13.97024,-17.10721c4.29596,2.40529 2.21529,7.82709 0.89415,10.75721c-0.9028,2.0023 -2.35878,3.70399 -4.08637,5.20131c0.15705,-0.00679 0.31675,-0.01213 0.47933,-0.01535h0.93237c0,0 2.5,0 2.5,2.5zM271.76639,209.87201c2.49658,-1.64751 4.76983,-3.57367 6.11722,-6.10259c0.66704,-1.25198 2.26289,-3.78802 0.89415,-4.16077c-3.74763,-1.0206 -10.27666,6.9968 -7.0479,10.22706c0.01218,0.01219 0.02436,0.02429 0.03653,0.0363z" fill="#910000" stroke="none" stroke-width="0.5"/><path d="M296.26683,204.04941c-1.3485,0.4495 -2.18585,-0.1233 -2.65736,-0.70121c-0.51465,1.06068 -1.37516,2.06899 -1.91899,3.09629c-1.1114,2.09946 -0.71399,4.75758 -1.68857,6.92367l-0.44427,2.66562c-0.179,1.20503 -1.21791,2.12954 -2.47274,2.12954c-1.37737,0 -2.49459,-1.11388 -2.49998,-2.48999l-0.01314,-2.86451c-0.20998,-2.38707 -0.48525,-4.80901 -1.25715,-7.07723c0,0 -0.79057,-2.37171 1.58114,-3.16228c1.59472,-0.53157 2.47459,0.36656 2.87993,1.01208c1.58481,-2.97799 3.95725,-4.81413 7.29849,-7.14391l2.77378,4.44966c0,0 0.79057,2.37171 -1.58114,3.16228z" fill="#910000" stroke="none" stroke-width="0.5"/><path d="M302.93525,214.9c-2.5,0 -2.5,-2.5 -2.5,-2.5l0.07464,-2.47109c1.58398,-6.33281 2.93566,-12.49014 1.82412,-19.02871c0,0 -0.411,-2.46598 2.05499,-2.87698c2.46598,-0.411 2.87698,2.05499 2.87698,2.05499c1.18796,7.25296 -0.14912,14.03498 -1.90538,21.06338l0.07464,1.25841c0,0 0,2.5 -2.5,2.5z" fill="#910000" stroke="none" stroke-width="0.5"/><path d="M299.03669,229.18273c0,-1.38071 1.11929,-2.5 2.5,-2.5c1.38071,0 2.5,1.11929 2.5,2.5c0,1.38071 -1.11929,2.5 -2.5,2.5c-1.38071,0 -2.5,-1.11929 -2.5,-2.5z" fill="#910000" stroke="none" stroke-width="0.5"/><path d="M253.1313,275.15847c0.28735,-0.66823 0.90881,-1.39084 2.25288,-1.39084c2.5,0 2.5,2.5 2.5,2.5l-1.38197,2.70226c-1.46502,0.6958 -2.77971,1.94227 -4.39506,2.08739c-2.2869,0.20546 -4.8674,0.15391 -6.80292,-1.08135c-1.19736,-0.76416 -1.08487,-2.65994 -1.26664,-4.06869c-0.81194,-6.29257 1.91646,-12.30224 4.40019,-17.90388c0,0 1.01535,-2.28453 3.29988,-1.26918c2.28453,1.01535 1.26918,3.29988 1.26918,3.29988c-1.48577,3.33458 -3.60442,7.33485 -4.00883,11.01649c-0.15974,1.45426 0.10592,2.92864 0.01765,4.38898c-0.01836,0.30368 -0.62401,0.7565 -0.33427,0.8493c1.57883,0.50568 3.11361,-0.33494 4.44991,-1.13036z" fill="#910000" stroke="none" stroke-width="0.5"/><path d="M265.64029,276.90288c-2.5,0 -2.5,-2.5 -2.5,-2.5l0.04511,-2.32435c-0.26622,-0.62508 -0.53245,-1.25015 -0.79867,-1.87523c0,0 -0.92848,-2.32119 1.39272,-3.24967c2.32119,-0.92848 3.24967,1.39272 3.24967,1.39272c0.35536,0.92888 0.71072,1.85776 1.06607,2.78664l0.04511,3.26989c0,0 0,2.5 -2.5,2.5z" fill="#910000" stroke="none" stroke-width="0.5"/><path d="M263.14029,256.68777c0,-1.38071 1.11929,-2.5 2.5,-2.5c1.38071,0 2.5,1.11929 2.5,2.5c0,1.38071 -1.11929,2.5 -2.5,2.5c-1.38071,0 -2.5,-1.11929 -2.5,-2.5z" fill="#910000" stroke="none" stroke-width="0.5"/><path d="M287.55108,269.91007c-2.5,0 -2.5,-2.5 -2.5,-2.5l0.09619,0.22062c-0.3593,-3.76918 -0.13757,-1.78546 -2.60992,0.8407c-1.27096,1.35003 -2.24889,3.79088 -4.10273,3.75618c-1.63585,-0.03062 -1.99644,-2.59268 -2.99466,-3.88902c0,0 -0.92848,-2.32119 1.39272,-3.24967c0.82359,-0.32944 1.47185,-0.24976 1.96552,-0.00982c2.14944,-3.26319 5.27226,-6.56617 9.49121,-3.25826c1.24302,0.9746 1.11032,2.95752 1.66549,4.43628l0.09619,1.15299c0,0 0,2.5 -2.5,2.5z" fill="#910000" stroke="none" stroke-width="0.5"/><path d="M294.70238,272.03441c-1.82721,-1.70625 -0.12096,-3.53346 -0.12096,-3.53346l2.64861,-2.52697c-1.04506,-7.98506 -2.15848,-15.81111 -3.73903,-23.7139c0,0 -0.49029,-2.45145 1.96116,-2.94174c2.45145,-0.49029 2.94174,1.96116 2.94174,1.96116c1.76166,8.80829 3.1768,17.35981 3.55455,26.34873l-3.7126,4.28522c0,0 -1.70625,1.82721 -3.53346,0.12096z" fill="#910000" stroke="none" stroke-width="0.5"/><path d="M291.28058,231.21655c-1.17694,0 -1.7998,-0.55407 -2.12944,-1.14053c-0.17873,-0.06951 -0.35748,-0.13719 -0.53628,-0.20321c-2.98438,3.67864 -6.79924,7.1142 -9.1273,11.23328c-1.34852,2.38597 -2.30575,5.00684 -3.88776,7.24485c0,0 -1.4531,2.03433 -3.48743,0.58124c-2.03433,-1.4531 -0.58124,-3.48743 -0.58124,-3.48743c1.48992,-2.06055 2.30773,-4.53412 3.57124,-6.74077c2.05675,-3.592 5.07368,-6.66339 7.82527,-9.81837l-2.36937,0c0,0 0,0 0,0c-1.38071,0 -2.5,-1.11929 -2.5,-2.5c0,-1.28702 0.97254,-2.3469 2.22282,-2.48481l3.60596,-0.45074l4.52168,-0.90434c0.17418,-0.03842 0.35518,-0.05867 0.54091,-0.05867c1.38071,0 2.5,1.11929 2.5,2.5c0,0.19893 -0.02323,0.39244 -0.06714,0.57795c0.3263,0.1457 0.6239,0.27844 0.88287,0.3875l1.5152,2.76405c0,0 0,2.5 -2.5,2.5z" fill="#910000" stroke="none" stroke-width="0.5"/></g></g></svg>