<svg version="1.1" xmlns="http://www.w3.org/2000/svg" xmlns:xlink="http://www.w3.org/1999/xlink" width="154" height="218" viewBox="0,0,154,218"><g transform="translate(-163,-71)"><g data-paper-data="{&quot;isPaintingLayer&quot;:true}" fill-rule="nonzero" stroke-linecap="butt" stroke-linejoin="miter" stroke-miterlimit="10" stroke-dasharray="" stroke-dashoffset="0" style="mix-blend-mode: normal"><path d="M164,288v-216h152v216z" fill="#a300f5" stroke="#000000" stroke-width="2"/><path d="M251.61613,276.31243c4.59356,-21.5917 2.331,-44.40759 1.23606,-66.30631c-0.8652,-17.30395 -0.81573,-34.61476 -0.77113,-51.93463c-1.04224,0.7113 -2.05288,1.38065 -2.95124,2.00927c-6.11817,4.28112 -12.95879,7.80721 -19.97036,10.40444c-1.70236,0.63059 -3.32712,1.55077 -5.11339,1.87468c-6.67554,1.21051 -12.69414,-0.80985 -19.04602,-2.19513c-4.86619,-1.06127 -7.56619,-2.16714 -12.19816,-3.89557c-1.6306,-0.60847 -3.70742,-0.40312 -4.96965,-1.60141c-1.0907,-1.03545 -0.85051,-2.8851 -1.27577,-4.32765c-1.09609,-0.84621 -2.93982,-1.19846 -3.28827,-2.53863c-0.50929,-1.95879 0.29799,-4.10687 1.07446,-5.97592c0.69745,-1.67886 2.16685,-2.91982 3.2329,-4.39242c0.96377,-1.33131 4.24337,-6.16938 4.64512,-6.58334c4.58168,-4.72092 11.32596,-8.22452 16.7898,-11.82166c6.97001,-4.58872 14.21742,-8.69466 21.21876,-13.21886c1.46875,-0.94909 6.40038,-4.75012 7.35259,-5.19258c0.2872,-0.13345 9.34422,-2.12795 9.47584,-2.15719c0,0 2.44047,-0.54233 2.98279,1.89814c0.54233,2.44047 -1.89814,2.98279 -1.89814,2.98279c-2.8378,0.63062 -5.89257,0.60768 -8.52416,1.84281c-3.66883,1.72195 -7.5061,5.32402 -11.01939,7.43294c-9.9174,5.9531 -19.78016,12.10605 -29.08108,18.99131c-3.61897,2.67904 -5.26798,5.21777 -7.89325,8.75932c-0.90251,1.2175 -1.93609,2.3402 -2.7671,3.60758c-0.4068,0.62041 -1.26389,1.36384 -0.92554,2.02408c0.4683,0.91381 1.80782,0.97425 2.71173,1.46137c0.24141,1.22412 -0.12167,2.75518 0.72423,3.67235c0.69072,0.74893 2.05784,0.09493 3.03035,0.39859c2.39162,0.74677 4.47303,2.3668 6.90482,2.97004c3.21412,0.7973 6.51269,1.24028 9.70779,2.11066c12.44065,3.38899 25.24486,-3.61927 35.25177,-10.62691c1.59937,-1.12001 3.86418,-2.47101 5.83251,-3.98508c0.00303,-1.69975 0.00498,-3.39959 0.00498,-5.09952c0,-6.65685 0.37294,-12.81834 1.31802,-19.40381c0.22837,-1.59129 0.55743,-3.17116 0.68827,-4.77342c0.1193,-1.461 -0.58882,-3.083 0.06059,-4.39716c0.08518,-0.17238 0.17632,-0.34084 0.27273,-0.50581l-0.07568,-0.03784l1.97578,-3.95156c0.40086,-0.84561 1.26228,-1.43041 2.26029,-1.43041c1.38071,0 2.5,1.11929 2.5,2.5v2.76803c1.87447,7.3616 3.00809,13.94005 2.98127,21.53742c-0.94546,3.79489 -2.24479,8.73091 -4.38743,12.06051c-0.67652,1.05128 -1.58474,2.04716 -2.61527,2.98926c-0.05853,18.50814 -0.15697,37.01431 0.76738,55.50121c1.15342,23.06837 3.48661,47.04989 -1.81159,69.71267l-3.85715,-1.22656l-1.01157,0.08833c0.02975,-0.12724 0.05925,-0.25454 0.0885,-0.38187l-0.15414,-0.04902c0,0 0,-0.87327 0.51612,-1.58756zM257.09938,145.23948c0.85609,-2.19101 1.50469,-4.5956 2.01936,-6.64494c-0.01384,-3.46902 -0.31481,-6.71734 -0.81566,-9.93617c-0.64135,4.51527 -1.20601,8.65165 -1.20307,13.24163c0.00071,1.11316 0.00043,2.22632 -0.00063,3.33948z" fill="#000000" stroke="none" stroke-width="0.5"/></g></g></svg>