<svg version="1.1" xmlns="http://www.w3.org/2000/svg" xmlns:xlink="http://www.w3.org/1999/xlink" width="399.82092" height="238.67718" viewBox="0,0,399.82092,238.67718"><g transform="translate(-131.6646,-138.22196)"><g data-paper-data="{&quot;isPaintingLayer&quot;:true}" fill-rule="nonzero" stroke-linecap="butt" stroke-linejoin="miter" stroke-miterlimit="10" stroke-dasharray="" stroke-dashoffset="0" style="mix-blend-mode: normal"><path d="M148.97708,218.86614v-79.39417h50.04587v79.39417z" fill-opacity="0.52157" fill="#00ffff" stroke-opacity="0.1451" stroke="#ff0000" stroke-width="2.5"/><text transform="translate(168.28002,185.72605) scale(0.5,0.5)" font-size="40" xml:space="preserve" fill="#00ffff" fill-rule="nonzero" stroke="none" stroke-width="1" stroke-linecap="butt" stroke-linejoin="miter" stroke-miterlimit="10" stroke-dasharray="" stroke-dashoffset="0" font-family="Sans Serif" font-weight="normal" text-anchor="start" style="mix-blend-mode: normal"><tspan x="0" dy="0">+</tspan></text><path d="M225.02484,235.25552v-90.37743h305.71068v90.37743z" fill-opacity="0.76078" fill="#000000" stroke="#ff0000" stroke-width="1.5"/><text transform="translate(235.47446,168.34219) scale(0.50766,0.50766)" font-size="40" xml:space="preserve" fill="#00c6ff" fill-rule="nonzero" stroke="none" stroke-width="1" stroke-linecap="butt" stroke-linejoin="miter" stroke-miterlimit="10" stroke-dasharray="" stroke-dashoffset="0" font-family="Sans Serif" font-weight="normal" text-anchor="start" style="mix-blend-mode: normal"><tspan x="0" dy="0">Du kannst 3 Karten addieren</tspan></text><text transform="translate(232.87495,187.9157) scale(0.21904,0.21904)" font-size="40" xml:space="preserve" fill="#00c6ff" fill-rule="nonzero" stroke="none" stroke-width="1" stroke-linecap="butt" stroke-linejoin="miter" stroke-miterlimit="10" stroke-dasharray="" stroke-dashoffset="0" font-family="Sans Serif" font-weight="normal" text-anchor="start" style="mix-blend-mode: normal"><tspan x="0" dy="0">Die Karten müssen die gleiche Nummer vom Ablagestapel addieren.</tspan></text><text transform="translate(233.13097,201.98707) scale(0.25467,0.25467)" font-size="40" xml:space="preserve" fill="#ff0000" fill-rule="nonzero" stroke="none" stroke-width="1" stroke-linecap="butt" stroke-linejoin="miter" stroke-miterlimit="10" stroke-dasharray="" stroke-dashoffset="0" font-family="Sans Serif" font-weight="normal" text-anchor="start" style="mix-blend-mode: normal"><tspan x="0" dy="0">Du kannst nur 3 Karten addieren. Nicht 2, Nicht 4.</tspan></text><text transform="translate(232.98456,217.56184) scale(0.25466,0.25466)" font-size="40" xml:space="preserve" fill="#ff0000" fill-rule="nonzero" stroke="none" stroke-width="1" stroke-linecap="butt" stroke-linejoin="miter" stroke-miterlimit="10" stroke-dasharray="" stroke-dashoffset="0" font-family="Sans Serif" font-weight="normal" text-anchor="start" style="mix-blend-mode: normal"><tspan x="0" dy="0">Die Karte wird zum Ablagestapel abliegen, ob es spielbar ist.</tspan></text><path d="M132.4146,376.14915v-102.76418h375.17081v102.76418z" fill-opacity="0.76078" fill="#000000" stroke="#ff0000" stroke-width="1.5"/><path d="M189.06478,233.0451c-1.42816,2.05192 -3.48008,0.62375 -3.48008,0.62375l-3.80267,-2.66566c-0.21556,-0.08637 -2.05169,-0.8531 -3.24573,-1.26212c-0.5221,0.07107 -1.02263,0.1457 -1.50544,0.22633c-0.67001,4.81131 -1.01543,10.25543 0.24871,14.69444c2.24904,7.89746 9.25696,12.96958 14.37879,18.84561c1.99134,2.28457 3.57784,4.89263 5.3637,7.34117c0,0 1.47318,2.01984 -0.54666,3.49302c-2.01984,1.47318 -3.49302,-0.54666 -3.49302,-0.54666c-1.70949,-2.34383 -3.21279,-4.85202 -5.12234,-7.03594c-5.67298,-6.48812 -12.90341,-11.99866 -15.38928,-20.72775c-1.12936,-3.96573 -1.18513,-8.56334 -0.80589,-12.98328c-0.64199,0.40424 -1.30939,0.74917 -2.0285,0.97179c-0.02606,0.00807 -0.05214,0.01606 -0.07823,0.02399l0.00538,0.01151l-4.48196,2.09451c-0.3335,0.16483 -0.70906,0.25746 -1.10625,0.25746c-1.38071,0 -2.5,-1.11929 -2.5,-2.5c0,-0.6908 0.28018,-1.31616 0.7331,-1.76864l2.08808,-2.08618l0.06202,0.06207l0.0964,-0.20729c2.86528,-2.01188 5.40137,-3.2397 8.28572,-4.06639l0.88136,-1.52371c0,0 1.56255,-1.95152 3.51407,-0.38898c0.23097,0.18493 0.41271,0.37531 0.55365,0.56726c1.97656,0.11196 4.91145,1.47376 6.47382,2.11136l4.2775,2.95825c0,0 2.05192,1.42816 0.62375,3.48008z" fill="#ff0000" stroke="none" stroke-width="0.5"/><text transform="translate(435.79735,244.6007) scale(0.23576,0.25839)" font-size="40" xml:space="preserve" fill="#ffffff" fill-rule="nonzero" stroke="none" stroke-width="1" stroke-linecap="butt" stroke-linejoin="miter" stroke-miterlimit="10" stroke-dasharray="" stroke-dashoffset="0" font-family="Sans Serif" font-weight="normal" text-anchor="start" style="mix-blend-mode: normal"><tspan x="0" dy="0">Klicken zu fortfahren</tspan></text></g></g></svg>