<svg version="1.1" xmlns="http://www.w3.org/2000/svg" xmlns:xlink="http://www.w3.org/1999/xlink" width="154" height="218" viewBox="0,0,154,218"><g transform="translate(-163,-71)"><g data-paper-data="{&quot;isPaintingLayer&quot;:true}" fill-rule="nonzero" stroke-linecap="butt" stroke-linejoin="miter" stroke-miterlimit="10" stroke-dasharray="" stroke-dashoffset="0" style="mix-blend-mode: normal"><path d="M164,288v-216h152v216z" fill="#a300f5" stroke="#000000" stroke-width="2"/><path d="M254.36777,239.13223c0.41028,0.41028 0.63011,0.82055 0.72581,1.20873c1.45712,-2.5045 2.78622,-5.16369 4.18405,-7.43275c3.78409,-7.54964 7.60291,-14.84111 12.10602,-21.98999c1.07945,-1.71368 2.04738,-3.51865 2.74864,-5.41868c0.13751,-0.37259 0.8172,-0.89794 0.47185,-1.09406c-5.23164,-2.97094 -10.95105,2.38327 -14.87006,4.88595c-5.54205,3.53916 -9.33021,8.55857 -13.71696,13.42998c-2.18722,2.42887 -5.18667,5.7169 -6.04004,8.95289c-0.69399,2.63163 -0.55707,5.41486 -0.87942,8.1173c0.1609,1.17033 -0.1693,2.52588 0.48271,3.51099c0.76781,1.16009 5.14981,1.71305 6.06294,1.2877c1.22307,-0.56973 1.81632,-1.99573 2.72448,-2.9936l2.46447,-2.46447c0,0 1.76777,-1.76777 3.53553,0zM245.84326,249.62374c-3.44514,0.45173 -8.35541,-0.7456 -10.26245,-3.32054c-1.2828,-1.73207 -0.98564,-4.19654 -1.47846,-6.29482c0.12273,-1.17599 0.93933,-9.22985 1.12058,-9.8827c1.08495,-3.90783 4.43691,-7.79767 7.07315,-10.74403c3.27769,-3.66326 6.52093,-8.21603 10.2597,-11.39723c0.14913,-0.12689 8.34835,-5.38919 8.68512,-5.60164c4.60964,-2.90797 12.38838,-6.14315 17.35496,-0.98828c1.71635,1.78142 0.10729,6.79555 -0.73496,8.57239c-1.99393,4.20646 -5.21032,7.92154 -7.49297,11.9777c-2.4377,4.33167 -4.49104,8.95554 -6.72264,13.39742c-2.56828,4.17775 -4.98302,9.54966 -8.19805,13.24251c-2.03173,2.33368 -4.92344,3.74918 -7.39838,5.60625c-0.55983,0.42006 -8.20428,6.18507 -8.54215,6.31169c-7.63739,2.86237 -12.84288,-2.95843 -17.45342,-8.20453c-1.23608,-1.40647 -2.69898,-2.65075 -3.67384,-4.24941c-1.41892,-2.32685 -1.30745,-5.29177 -1.92358,-7.94657c-0.08649,-0.37269 -2.28994,-9.8415 -2.31119,-10.03982c-0.89098,-8.31156 0.41852,-17.24592 1.38824,-25.48851c0.55664,-4.70595 1.11905,-10.04263 2.72105,-14.53743c1.07093,-3.00476 2.96517,-5.64887 4.45769,-8.46806c0.14578,-0.27536 4.70757,-8.89956 4.7982,-9.03976c3.47978,-5.38297 8.25017,-10.12609 12.15325,-15.2135c3.04214,-3.96524 5.77453,-8.19015 8.89642,-12.0925c1.2304,-1.538 2.14194,-3.50016 3.84835,-4.48375c4.77153,-2.75034 9.40723,-0.73263 13.98269,0.78965c0,0 2.37171,0.79057 1.58114,3.16228c-0.79057,2.37171 -3.16228,1.58114 -3.16228,1.58114c-2.77065,-0.9254 -6.91964,-3.12073 -9.82311,-1.24919c-1.14748,0.73965 -1.65886,2.1688 -2.47505,3.26315c-2.98539,4.00286 -5.84164,8.11091 -8.88116,12.07272c-3.82519,4.98588 -8.53446,9.63666 -11.93996,14.91321c-1.76523,2.73507 -3.03646,5.75904 -4.55955,8.636c-1.38824,2.62224 -3.19303,5.05971 -4.18456,7.85618c-1.46178,4.12277 -1.94323,9.08439 -2.44737,13.39408c-0.92577,7.86901 -2.23298,16.43733 -1.38247,24.37137c0.34455,3.21413 1.47945,6.29354 2.21023,9.4424c1.28993,5.55812 0.75494,5.8882 4.46392,10.00452c2.70889,3.00639 7.08866,9.16046 11.80244,6.90716c2.82081,-1.34842 4.95438,-3.81537 7.45519,-5.69184c0.25983,-0.19496 0.5256,-0.38346 0.79528,-0.56771z" fill="#000000" stroke="none" stroke-width="0.5"/></g></g></svg>