<svg version="1.1" xmlns="http://www.w3.org/2000/svg" xmlns:xlink="http://www.w3.org/1999/xlink" width="180.10003" height="218" viewBox="0,0,180.10003,218"><g transform="translate(-163,-71)"><g data-paper-data="{&quot;isPaintingLayer&quot;:true}" fill-rule="nonzero" stroke-linecap="butt" stroke-linejoin="miter" stroke-miterlimit="10" stroke-dasharray="" stroke-dashoffset="0" style="mix-blend-mode: normal"><path d="M164,288v-216h152v216z" fill="#a300f5" stroke="#000000" stroke-width="2"/><path d="M343.10001,182.89999c0,2.5 -2.5,2.5 -2.5,2.5h-2.9997c-15.05033,0.00364 -29.98946,0.42641 -45.00479,0.90517c-0.06596,3.94695 -0.16229,7.8984 -0.50453,11.79681c-1.17709,13.40789 -4.33474,26.55085 -7.30337,39.63814c-2.63137,11.60045 -5.18904,23.21731 -7.77832,34.82721l-0.0852,0.10736l0.04763,0.01588l-0.98177,2.94531c-0.31417,1.02156 -1.26534,1.76412 -2.38994,1.76412c-1.38071,0 -2.5,-1.11929 -2.5,-2.5v-4c0,0 0,-1.92963 1.69528,-2.39833c2.35266,-10.62686 4.70847,-21.2531 7.1162,-31.86761c2.91851,-12.86632 6.0414,-25.78743 7.19865,-38.96934c0.3254,-3.70657 0.42313,-7.46266 0.48619,-11.21644c-11.03926,0.17177 -21.9825,-1.04827 -32.99632,-1.04827c0,0 -2.5,0 -2.5,-2.5c0,-2.5 2.5,-2.5 2.5,-2.5c11.04229,0 22.0093,1.23792 33.07685,1.04677c0.02286,-1.21514 0.05112,-2.4276 0.09139,-3.63561c0.4352,-13.05594 0.6965,-27.43114 -3.47794,-39.95445c-0.33488,-0.94336 -0.24754,-2.17519 -1.00463,-2.83008c-0.47333,-0.40944 -1.21518,0.37174 -1.84102,0.36854c-1.07252,-0.00549 -2.1291,-0.26127 -3.19335,-0.3943c-4.94433,-0.61804 -9.67221,-0.60087 -14.6513,-0.60087c-12.77335,0 -25.58261,0.40987 -38.30166,-1.01827c-6.05116,-0.67944 -12.10265,-2.01463 -18.10933,-3.01575c0,0 -2.46598,-0.411 -2.05499,-2.87698c0.411,-2.46598 2.87698,-2.05499 2.87698,-2.05499c5.93309,0.98885 11.91357,2.31617 17.89067,2.98425c12.51747,1.39912 25.12784,0.98173 37.69834,0.98173c6.18011,0 12.02113,0.36562 18.15534,1.00483c1.38427,0.14425 3.05846,-0.48342 4.15898,0.36854c1.57489,1.21919 1.99691,3.44661 2.99537,5.16992c4.41655,13.24964 4.31656,28.21064 3.85577,42.03444c-0.0368,1.10414 -0.06391,2.21187 -0.08617,3.32189c14.98639,-0.47871 29.89867,-0.896 44.92041,-0.89963h3.0003c0,0 2.5,0 2.5,2.5z" fill="#000000" stroke="none" stroke-width="0.5"/></g></g></svg>