<svg version="1.1" xmlns="http://www.w3.org/2000/svg" xmlns:xlink="http://www.w3.org/1999/xlink" width="158.91647" height="229.95868" viewBox="0,0,158.91647,229.95868"><g transform="translate(-163,-71)"><g data-paper-data="{&quot;isPaintingLayer&quot;:true}" fill-rule="nonzero" stroke-linecap="butt" stroke-linejoin="miter" stroke-miterlimit="10" stroke-dasharray="" stroke-dashoffset="0" style="mix-blend-mode: normal"><path d="M164,288v-216h152v216z" fill="#818181" stroke="#000000" stroke-width="2"/><path d="M287.6892,96.15876l3.13933,-3.27217c0.45516,-0.47598 1.0965,-0.77243 1.80708,-0.77243c1.38071,0 2.5,1.11929 2.5,2.5c0,0.01004 -0.00006,0.02008 -0.00018,0.03009l-0.03669,3.55832l-0.05188,-0.00053c0.00129,0.2003 -0.00756,0.40118 -0.02814,0.60275c-0.18976,1.85817 -1.72919,3.31142 -2.60916,4.95897c-3.1405,5.87991 -6.36347,11.71751 -9.54497,17.57537c-10.79438,19.87489 -22.60014,39.20014 -33.49284,59.02597c-11.84025,21.55046 -24.18155,43.05382 -38.05771,63.35159c-2.46065,3.59939 -4.88292,8.20711 -8.47389,10.86049c-2.82167,2.08494 -6.70174,3.75373 -8.71867,-1.56931c-0.03919,-0.10343 -0.07247,-0.20745 -0.10032,-0.31204l-0.18059,0.06193l0.08316,0.13724l-4.24159,2.57015c-0.38524,0.24256 -0.84133,0.38288 -1.3302,0.38288c-1.38071,0 -2.5,-1.11929 -2.5,-2.5c0,-0.39385 0.09108,-0.76643 0.25331,-1.09783l2.07693,-4.48977l0.42217,0.19529c0.9992,-3.08436 2.19616,-6.11136 3.50053,-9.10358c-1.51239,2.50522 -3.41989,5.66357 -3.42969,5.67297c-0.03616,0.03467 -0.07266,0.06888 -0.10951,0.10265l0.02186,0.01703l-1.7602,2.25971c-0.45679,0.59807 -1.17734,0.98392 -1.98801,0.98392c-1.38071,0 -2.5,-1.11929 -2.5,-2.5c0,-0.35374 0.07347,-0.69032 0.20598,-0.99532l1.86498,-4.57836l0.00622,0.00253l0.00255,-0.02379c1.63381,-3.80914 3.30717,-7.60131 5.00598,-11.38248c-0.39469,0.26069 -0.86765,0.41246 -1.37606,0.41246c-1.38071,0 -2.5,-1.11929 -2.5,-2.5c0,-0.40913 0.09828,-0.7953 0.27251,-1.1362l2.15719,-4.45353c0.44358,-1.60655 1.4531,-2.99994 2.17965,-4.4999c0.30192,-0.62331 0.60733,-1.24391 0.91598,-1.86209c-0.27736,0.10612 -0.57845,0.16426 -0.89313,0.16426c-0.78547,0 -1.48633,-0.36224 -1.94465,-0.92877c-0.89792,1.15744 -1.79583,2.31488 -2.69375,3.47232l-2.30348,2.96925c-0.45662,0.60048 -1.17865,0.98816 -1.99123,0.98816c-1.38071,0 -2.5,-1.11929 -2.5,-2.5c0,-0.42228 0.1047,-0.8201 0.28955,-1.16893l2.22604,-4.42122c1.17172,-3.96252 4.40624,-8.55084 6.55167,-12.02454c2.62738,-4.25404 5.25676,-8.50685 7.88514,-12.76027c11.37046,-18.40045 22.96557,-36.47817 35.25284,-54.28174c5.33585,-7.73136 10.49134,-15.53588 15.56211,-23.44399l0.02566,-0.01839l-0.00924,-0.00624l1.99215,-2.95092c0.44645,-0.682 1.21721,-1.13253 2.0932,-1.13253c0.57147,0 1.09815,0.19174 1.51922,0.5144c2.382,-3.85754 5.3655,-7.84263 7.18613,-11.93586c0.19436,-0.43698 1.29037,-4.3169 2.06175,-6.92534c-4.38467,3.35132 -8.54333,7.05127 -12.54195,10.93932c-3.64647,4.04538 -7.30697,8.07989 -10.9082,12.16455c-0.0807,0.09154 -0.16139,0.18309 -0.24205,0.27465c-2.51225,3.00949 -4.92874,6.07797 -7.18611,9.23387c-16.79276,23.44227 -33.85792,46.7263 -50.33071,70.3924c0,0 -0.98812,1.41961 -2.50136,1.07533l-2.05667,3.87143c-0.41208,0.81455 -1.2569,1.37298 -2.23216,1.37298c-1.38071,0 -2.5,-1.11929 -2.5,-2.5c0,-0.41021 0.0988,-0.79734 0.27389,-1.1389l2.16286,-4.45091c2.64173,-5.43167 5.6268,-10.62729 8.86091,-15.72992c0.20696,-0.32643 0.41405,-0.65267 0.62127,-0.9787c-0.00808,-0.08182 -0.01222,-0.16481 -0.01222,-0.24875c0,-0.41665 0.10192,-0.80949 0.2822,-1.15495l1.43487,-2.89716l0.07088,0.0351l0.02528,-0.21113c2.41798,-3.39418 4.95318,-6.6575 7.53062,-9.91485c8.29499,-12.5271 16.88774,-24.77565 26.02094,-36.82461c4.98182,-6.57227 9.60539,-14.2504 15.32669,-20.18099c1.04524,-1.08347 2.12202,-1.86516 3.2542,-2.49466l3.96598,-3.00453c0.42271,-0.32726 0.95317,-0.52203 1.52913,-0.52203c0.89535,0 1.68076,0.47067 2.12232,1.17808c3.35044,-3.66955 6.71939,-7.30602 9.98764,-10.96365l0.05408,-0.02782l-0.01416,-0.01388l3.4172,-3.48768c0.45386,-0.46397 1.08693,-0.75193 1.78725,-0.75193c0.70093,0 1.33448,0.28846 1.78843,0.75313c0.091,-0.06494 0.1821,-0.12972 0.2733,-0.19436l2.86623,-2.02872c0.41233,-0.2998 0.91983,-0.47663 1.46863,-0.47663c1.38071,0 2.5,1.11929 2.5,2.5c0,0.27426 -0.04416,0.53821 -0.12577,0.78512l-1.44192,4.72676l-0.23986,-0.07317c-0.51878,3.37571 -1.34101,6.67828 -2.78493,9.92458c-0.04978,0.11192 -0.10003,0.22376 -0.15073,0.33552c0.26881,-0.27798 0.5388,-0.55532 0.81001,-0.832l0.06906,-0.02958l-0.01726,-0.01895l2.48577,-2.26337c0.44493,-0.40813 1.0381,-0.65723 1.68945,-0.65723c1.38071,0 2.5,1.11929 2.5,2.5c0,0.42382 -0.10546,0.82302 -0.29158,1.17276l-2.23412,4.41735c-0.3884,1.39015 -3.78303,6.53231 -4.00025,6.87955c-0.82939,1.32583 -1.65893,2.65155 -2.48858,3.97722c0.76261,0.37217 1.30773,1.12095 1.39323,2.00422l0.4011,3.64312l-0.07058,0.00777c0.02947,0.28261 0.03608,0.5681 0.01466,0.85712c-0.14426,1.9465 -2.0593,3.31656 -3.11813,4.95623c-2.26005,3.49987 -4.56519,6.97072 -6.85853,10.44949c3.39558,-4.34339 6.90462,-8.61173 10.59343,-12.77863l2.38923,-2.69888c0.45822,-0.52261 1.1308,-0.85256 1.88046,-0.85256c0.02039,0 0.04073,0.00024 0.06101,0.00073c5.93188,-7.57962 12.115,-14.94034 18.74055,-21.84984zM201.33503,242.51775c-0.48292,1.75189 -0.92692,3.51783 -1.32865,5.29869c-0.41416,1.2022 -1.96825,4.41361 -0.91339,3.70364c2.08716,-1.40475 3.85923,-4.42682 5.2716,-6.49754c3.73477,-5.47564 7.66063,-10.86056 11.23978,-16.4387c10.48487,-16.34074 20.03829,-33.61405 29.38522,-50.6264c10.88876,-19.81864 22.6916,-39.13645 33.48115,-59.00457c2.38072,-4.38391 4.73649,-8.78297 7.12395,-13.16392c-4.18402,4.69129 -8.1991,9.55131 -12.10098,14.51155c0.16169,0.33095 0.25244,0.7029 0.25244,1.09604c0,0.49548 -0.14414,0.95729 -0.39278,1.34579l-2.60384,4.22227c-1.2055,3.10771 -3.49936,5.67441 -5.24904,8.51161c-3.33021,5.40012 -6.6801,10.78512 -9.91246,16.24445c-10.77553,18.19947 -21.52564,36.41307 -32.2406,54.64827c-7.16815,12.19908 -14.198,24.40553 -22.01241,36.14881zM254.20667,115.86523c-2.77228,3.519 -5.44989,7.11419 -8.08412,10.77445c-3.2456,5.51478 -6.44901,11.05703 -9.64191,16.60585c1.08772,-1.42517 2.19092,-2.83379 3.30214,-4.23312c4.23907,-6.84579 8.49834,-13.67994 12.77196,-20.5077c0.55068,-0.8798 1.10132,-1.75963 1.65193,-2.63947zM211.03355,195.87134c-1.45409,2.3708 -2.91811,4.7355 -4.39594,7.09126c-0.70663,1.52903 -1.41475,3.05747 -2.1234,4.58571c1.80493,-3.13816 3.59506,-6.28315 5.31543,-9.46166c0.40023,-0.73946 0.80154,-1.47789 1.20391,-2.21532zM223.2782,196.60745l-0.44911,-1.06619c-4.28386,7.27321 -8.41483,14.67091 -12.05601,22.28083c2.77271,-4.64115 5.51468,-9.30814 8.2635,-13.98621c1.41524,-2.40852 2.82884,-4.81817 4.24163,-7.22843z" fill="#09c600" stroke="none" stroke-width="0.5"/><path d="M244.62954,240.19068c-3.1911,4.68748 -6.6232,9.15351 -10.46152,13.1864l-2.32572,2.43605c-0.45543,0.47879 -1.0987,0.77725 -1.81167,0.77725c-0.43569,0 -0.84535,-0.11145 -1.20202,-0.3074c-1.70824,2.21807 -3.43732,4.41989 -5.19047,6.60291c-4.08275,5.0815 -7.94474,11.27794 -12.67091,15.7553c-3.60461,3.41484 -7.03931,7.27268 -11.36961,0.64497c-0.86183,-1.31906 0.45224,-3.12324 0.82123,-4.65507c0.7806,-3.24064 1.93515,-6.37963 2.90506,-9.56873c5.60934,-18.44361 15.92767,-35.53443 25.09729,-52.38026c9.92623,-18.23583 21.64132,-36.36161 35.47484,-51.84123c2.22116,-2.48547 4.43698,-4.97572 6.66349,-7.4564c1.18738,-1.32292 2.09578,-2.96845 3.57013,-3.96156c2.08534,-1.40465 4.50559,-3.8933 6.885,-3.08085c1.94559,0.66432 1.87698,3.79544 1.81372,5.90111c0.78321,0.42218 1.31547,1.24999 1.31547,2.20212c0,0.11326 -0.00753,0.22476 -0.02212,0.33403c5.99808,-9.239 12.69718,-18.12846 19.17992,-26.9038l1.55165,-2.53694c0.43454,-0.73824 1.23742,-1.23368 2.15602,-1.23368c1.38071,0 2.5,1.11929 2.5,2.5c0,0.48459 -0.13788,0.93698 -0.37654,1.32008l-2.52734,4.21885c-1.07202,3.14061 -3.21495,5.80655 -4.82244,8.7098c-2.13139,3.84945 -4.2576,7.70186 -6.39004,11.55076c0.46472,-0.0975 0.92496,-0.11618 1.3722,-0.02726l0.52712,-0.68463c0.45628,-0.60496 1.18107,-0.99601 1.99718,-0.99601c1.38071,0 2.5,1.11929 2.5,2.5c0,0.43359 -0.11038,0.84139 -0.30457,1.19685l-2.28503,4.3926c-0.08468,0.27459 -0.17763,0.54579 -0.27777,0.81404c0.53934,4.23854 -0.00598,5.66193 -0.71805,10.00604c-1.07837,6.57885 -2.17289,13.15511 -3.25933,19.73263c-0.48696,2.94016 -1.09508,5.85592 -1.76926,8.75803c6.81604,-7.72147 13.89123,-15.18333 20.92164,-22.75862l0.03463,-0.02051l-0.00749,-0.0074l3.51261,-3.55644c0.45332,-0.45942 1.08322,-0.74417 1.77963,-0.74417c1.38071,0 2.5,1.11929 2.5,2.5c0,0.32018 -0.06019,0.62629 -0.16987,0.90766l-1.68663,4.64535l-0.03306,-0.012c-0.02288,0.08642 -0.04679,0.17264 -0.07177,0.25865c-0.48988,1.68616 -1.86358,2.97649 -2.79833,4.46288c-3.53039,5.61381 -7.26293,11.14011 -10.63191,16.85177c-3.18688,5.40292 -6.28563,10.86581 -9.3266,16.36589c0.9277,-0.91455 1.87587,-1.80548 2.84608,-2.67044c3.7669,-3.34665 7.53383,-6.69326 11.30251,-10.03791l0.1118,-0.04445l-0.01955,-0.02663l3.92129,-2.87843c0.41802,-0.31434 0.9378,-0.50063 1.50109,-0.50063c1.38071,0 2.5,1.11929 2.5,2.5c0,0.44006 -0.1137,0.85356 -0.31332,1.21273l-2.31871,4.37588l-0.43587,-0.23096c-4.66604,12.67021 -13.00419,24.29462 -19.48842,36.00269c-5.63289,10.17087 -11.61101,20.176 -17.15857,30.38768c-2.77233,5.10317 -4.96732,9.49034 -8.49214,14.18773c-1.5151,-1.42323 -3.83798,-2.31501 -4.5453,-4.2697c-0.68344,-1.8887 0.52815,-3.98264 0.84118,-5.96665c0.53878,-3.41473 1.21194,-6.76298 1.97533,-10.09158c-4.84845,8.83256 -9.85491,17.54935 -14.75046,26.3631l-2.40412,4.32705c-0.41983,0.79085 -1.25181,1.32946 -2.2096,1.32946c-1.38071,0 -2.5,-1.11929 -2.5,-2.5c0,-0.35126 0.07244,-0.68561 0.20321,-0.9889l1.85183,-4.58353c0.48856,-2.40448 3.20259,-7.17571 4.31923,-9.28813c3.15578,-5.97003 6.45443,-11.74566 9.98739,-17.5004c3.76486,-6.13248 7.42292,-12.62832 11.25405,-19.07464c2.61658,-9.62199 5.23879,-19.24276 7.73967,-28.89474c-11.60631,14.26368 -23.01283,28.7716 -33.35063,43.96943c-5.37207,7.8976 -9.58392,16.32953 -15.20352,23.89518c-0.00461,0.0121 -0.00923,0.0242 -0.01384,0.03631l-0.10043,0.26356l0.3247,0.15234l-2.05374,4.3774c-0.38831,0.87697 -1.26623,1.4888 -2.28705,1.4888c-1.38071,0 -2.5,-1.11929 -2.5,-2.5c0,-0.33396 0.06548,-0.65262 0.1843,-0.94385l1.75992,-4.61863c3.54804,-9.31124 7.82309,-18.32492 12.2841,-27.25091c-0.23164,-0.37913 -0.36512,-0.82476 -0.36512,-1.30157c0,-0.15582 0.01426,-0.30832 0.04154,-0.45625l0.81201,-4.88596c-0.05022,-3.3137 0.99006,-6.90301 2.1804,-10.1635zM293.44941,169.82801c-2.55422,4.85697 -5.17454,9.67891 -7.77299,14.51245c-10.24884,19.06452 -20.65988,38.04016 -30.37719,57.38168c-2.14723,4.2739 -4.3351,8.53605 -6.50173,12.81022c11.17355,-16.317 23.80476,-31.74687 36.30597,-46.97693c0.26181,-0.31896 0.52422,-0.63726 0.78723,-0.95494c1.56672,-5.98464 3.11637,-11.97806 4.12085,-18.0767c1.0107,-6.119 2.54416,-12.44253 3.43786,-18.69579zM228.26394,248.77582c0.00706,-0.09283 0.01528,-0.18564 0.02472,-0.27845c0.17906,-1.7598 1.30209,-3.28944 1.95739,-4.93246c1.85228,-4.6442 3.72053,-9.28216 5.58239,-13.92253c5.00692,-12.47892 12.02565,-24.05536 18.65397,-35.7218c5.74714,-10.11548 11.12017,-20.43822 16.87463,-30.54956c1.63412,-2.87122 3.32241,-5.71224 4.90372,-8.61288c0.09129,-0.16746 0.17803,-0.33754 0.26206,-0.50915c-0.98196,1.13636 -1.95194,2.14889 -2.23509,2.4672c-4.90976,5.51951 -10.62783,10.82664 -15.0001,16.77516c-9.62588,13.09613 -18.71277,27.32114 -26.47487,41.58117c-7.61525,13.99024 -14.80282,27.85534 -21.31919,42.38985c-2.03884,4.54756 -3.39121,9.07199 -4.83782,13.83687c-0.48418,1.59479 -0.83219,3.23745 -1.45253,4.78437c-0.20163,0.5028 -0.9563,0.75199 -0.9846,1.29298c-0.01676,0.3204 0.63605,0.52783 0.89897,0.34395c0.92503,-0.64694 1.51762,-1.67232 2.24029,-2.53948c1.02041,-1.22444 1.99038,-2.49004 2.98747,-3.73354c3.12786,-3.90082 6.26336,-7.79555 9.39503,-11.69331c2.88911,-3.59416 5.7123,-7.24001 8.48415,-10.92597l0.00403,-0.0296l0.01653,0.00225c0.00628,-0.00836 0.01257,-0.01671 0.01885,-0.02507zM265.66919,186.90338c0.01737,-0.04446 0.03473,-0.08891 0.0521,-0.13337c-5.89975,11.24801 -12.14862,22.52417 -17.59571,34.06649c2.91431,-4.2634 5.80965,-8.54099 8.7064,-12.8166c2.54065,-6.93741 5.33958,-13.73635 8.43568,-20.2785c0.13241,-0.27979 0.26628,-0.55912 0.40152,-0.83802zM307.25298,190.02841c-5.73257,6.1868 -11.39303,12.42248 -16.81017,18.91736c-0.42803,1.63929 -0.85514,3.27851 -1.27121,4.91964c-1.20784,4.76416 -2.45092,9.51926 -3.71409,14.26917c5.41656,-10.1242 10.9425,-20.18698 16.76073,-30.05101c1.60523,-2.72144 3.31796,-5.39133 5.03473,-8.05517zM280.24786,248.65246c-0.22864,0.43366 -0.45727,0.86729 -0.68592,1.30086c-0.96583,3.5533 -1.92991,7.10701 -2.88588,10.66277c-1.34543,5.00436 -2.40036,9.95632 -3.42644,14.97712c2.11179,-4.13937 5.06301,-8.1745 7.05755,-11.61121c8.05281,-13.87548 15.69692,-27.98939 23.63653,-41.93299c1.66107,-2.91719 3.25068,-5.84221 4.82599,-8.79374c-1.80134,1.60078 -3.60289,3.20133 -5.40444,4.80188c-5.62904,4.98225 -9.85594,11.05138 -14.20811,17.14561c-3.11744,4.36526 -6.05805,8.87421 -8.90928,13.44969zM261.16787,212.81533c-0.31046,0.5164 -0.6201,1.03486 -0.92913,1.55512c-0.39556,1.00503 -0.79148,2.00992 -1.18781,3.01465c0.55432,-1.18159 1.10827,-2.36344 1.66196,-3.5455c0.15178,-0.34144 0.30343,-0.68287 0.45498,-1.02428zM282.27142,180.11239c-0.79791,1.10059 -1.59232,2.20401 -2.38358,3.30998c-1.51924,3.05267 -2.97555,6.13977 -4.39377,9.24614c2.2604,-4.18475 4.52229,-8.3687 6.77735,-12.55612z" fill="#a300f5" stroke="none" stroke-width="0.5"/><path d="M192.42173,92.55599c1.25424,-3.08837 2.48545,-6.18622 3.76681,-9.26343c0.72552,-1.74236 0.8374,-3.92083 2.21508,-5.21087c0.16209,-0.15178 0.33013,-0.29503 0.50339,-0.43082l-0.03031,-0.03995l3.96387,-3.00751c0.42293,-0.32789 0.95391,-0.52308 1.53048,-0.52308c1.38071,0 2.5,1.11929 2.5,2.5c0,0.14484 -0.01232,0.2868 -0.03596,0.42489l-0.58123,3.77528l-0.02536,-0.0039l0.00896,0.09833c-0.94492,4.05507 -1.71458,8.2166 -2.8051,12.24297c0.08443,0.25071 0.13019,0.5192 0.13019,0.79838c0,0.39299 -0.09068,0.76479 -0.25225,1.09564l-1.2533,2.71647c-0.01643,0.03561 -0.03286,0.07121 -0.04928,0.10682c-0.42326,1.29264 -0.86906,2.58129 -1.33116,3.86671c0.07798,-0.14929 0.15578,-0.29861 0.23338,-0.44795c2.0018,-4.03144 4.00351,-8.06292 6.00615,-12.09394l1.42977,-3.24998c0.37501,-0.90728 1.26865,-1.54568 2.31139,-1.54568c1.38071,0 2.5,1.11929 2.5,2.5c0,0.28415 -0.04741,0.55724 -0.13474,0.81177l-0.93807,2.95616l-0.03875,-0.0123c-0.00981,0.06969 -0.02074,0.13932 -0.03282,0.2089c-0.29713,1.71074 -1.58083,3.09203 -2.37315,4.63706c-0.5897,1.14991 -1.1799,2.29957 -1.77042,3.44906l2.02715,-2.96391c0.44775,-0.67445 1.21411,-1.11906 2.08431,-1.11906c1.38071,0 2.5,1.11929 2.5,2.5c0,0.32677 -0.06269,0.63889 -0.1767,0.925l-1.22452,3.29492c-0.49714,1.3377 -0.99617,2.67456 -1.49671,4.01074c1.81054,-0.40692 3.63331,-0.76379 5.4865,-1.0392c0.92122,-0.18246 1.84186,-0.36704 2.76183,-0.55404c0.68521,-1.17006 1.37284,-2.33907 2.06091,-3.5084c0.91253,-1.5508 1.35973,-3.5033 2.7508,-4.64462c0.10296,-0.08447 0.20753,-0.16645 0.3136,-0.24611l-0.03605,-0.04091l3.74301,-3.29773c0.44165,-0.39301 1.02359,-0.63178 1.66129,-0.63178c1.38071,0 2.5,1.11929 2.5,2.5c0,0.51212 -0.15398,0.98827 -0.41818,1.38468l-1.38956,2.15687c-0.98683,1.53174 -2.00284,3.05903 -3.01921,4.5918c6.12361,-1.37382 12.19202,-3.11117 18.2737,-4.65713c3.23059,-0.82121 6.36682,-2.22744 9.69177,-2.46364l4.7913,-1.21795c0.21338,-0.05926 0.43824,-0.09093 0.6705,-0.09093c1.38071,0 2.5,1.11929 2.5,2.5c0,1.00865 -0.59733,1.87778 -1.45755,2.27296l-3.88391,1.88587l-0.02603,-0.05361l-0.12848,0.12228c-7.43505,2.4465 -14.97737,4.55007 -22.40974,6.99093c-4.88764,1.60515 -9.71773,3.532 -14.5908,5.31223c-0.51438,0.9504 -1.00613,1.91057 -1.4693,2.88256c-7.01382,14.66237 -13.02677,29.80479 -19.10226,44.87267c-4.95386,12.28611 -10.09627,24.58288 -14.10116,37.21697c0,0 -0.75585,2.383 -3.13885,1.62715c-2.383,-0.75585 -1.62715,-3.13885 -1.62715,-3.13885c3.60056,-11.34484 8.09696,-22.42166 12.5667,-33.46107c-1.88045,4.144 -3.67766,8.3343 -5.368,12.58722l-0.15091,0.14632l0.05372,0.03215l-2.10859,3.52322c-0.43146,0.75034 -1.24111,1.2556 -2.16877,1.2556c-1.37085,0 -2.484,-1.10336 -2.49983,-2.47046l-0.03667,-2.71367l0.04462,-0.0006c-0.01246,-0.10723 -0.02186,-0.21506 -0.02793,-0.32354c-0.09911,-1.77187 0.84853,-3.44637 1.27775,-5.16832c1.23966,-4.97331 2.46524,-9.80291 4.17806,-14.6366c1.53198,-4.32333 3.09928,-8.63216 4.68902,-12.93192c-3.41117,7.96919 -6.72724,15.98535 -10.17952,23.91626c-3.28645,7.54997 -6.29257,15.23455 -10.34757,22.40553l-0.06671,0.05641l0.02182,0.01436l-2.72696,4.14344c-0.44372,0.69666 -1.22297,1.15878 -2.11015,1.15878c-1.38071,0 -2.5,-1.11929 -2.5,-2.5c0,-0.33837 0.06722,-0.66104 0.18904,-0.95538l1.13692,-2.93881c0.50396,-3.28488 2.25273,-6.2533 3.3791,-9.37993c1.69575,-4.70715 3.39143,-9.41407 5.10526,-14.11467c0.53149,-1.45774 1.05547,-2.92216 1.57481,-4.3913c-0.94875,-0.3549 -1.62421,-1.26972 -1.62421,-2.3423c0,-0.19666 0.02271,-0.38801 0.06564,-0.57158l1.02849,-4.83892c0.10744,-4.09313 1.2868,-8.232 2.81077,-12.27976c0.75819,-2.74584 1.5681,-5.47049 2.42587,-8.17696c-2.90218,-9.31192 -0.9418,-20.52673 -0.56281,-30.07209l0.01558,-0.03895l-0.01304,-0.00093l0.34594,-4.82372c0.0816,-1.30702 1.16749,-2.34183 2.49508,-2.34183c1.35023,0 2.45045,1.07041 2.49837,2.40895l0.20661,4.9832l-0.00018,0.00001c0.00007,0.00032 0.00015,0.00064 0.00022,0.00096c0.64319,2.776 -0.91943,5.92867 0.20703,8.5461c0.12468,0.28971 0.29337,0.55004 0.48998,0.79194l0.1992,-0.08016c1.62151,-6.22035 3.55767,-12.34337 5.91816,-18.15573zM199.47499,88.32086c-0.6984,1.6453 -1.40808,3.28613 -2.09083,4.93705l0.99147,-0.61578c0.40601,-1.42422 0.76424,-2.86853 1.09936,-4.32127zM213.22173,115.59357c-1.21974,0.36236 -2.44549,0.7 -3.67874,1.0059c-0.76523,0.18981 -1.54221,0.36652 -2.3276,0.53227c-4.33477,11.42212 -8.70012,22.82841 -12.85835,34.31965c5.81735,-11.92878 12.21861,-23.55895 18.56178,-35.29887c0.10074,-0.18646 0.20171,-0.37277 0.3029,-0.55895zM197.63043,118.72909c-0.02547,0.00359 -0.05094,0.00718 -0.07641,0.01077c-1.23459,2.31252 -2.4743,4.62825 -3.70353,6.95108c-2.30779,5.14146 -4.39077,10.41919 -6.35997,15.75537c2.03489,-4.69452 4.06902,-9.38937 6.10425,-14.08374c1.26568,-2.91936 2.62903,-5.78681 4.03564,-8.63348zM184.23112,115.65266c-0.05015,1.59846 -0.06095,3.18913 -0.00706,4.7634c0.27174,-1.28442 0.55433,-2.56939 0.84871,-3.85308c-0.06387,-0.07725 -0.1286,-0.15278 -0.19444,-0.22616c-0.2081,-0.23195 -0.42559,-0.459 -0.64721,-0.68416zM209.461,111.20214c-0.01074,0.02844 -0.02148,0.05687 -0.03222,0.08531c0.85311,-0.22083 1.70263,-0.45532 2.54912,-0.70127c-0.84071,0.19561 -1.67904,0.40219 -2.5169,0.61596z" fill="#66abff" stroke="none" stroke-width="0.5"/><path d="M222.83224,265.66776c-1.76777,-1.76777 0,-3.53553 0,-3.53553l0.76556,-0.72928c4.31411,-5.76984 7.53252,-11.60383 10.25456,-18.29388c3.07741,-7.55365 6.87271,-15.14253 9.34788,-22.90986c1.2682,-3.97974 1.56672,-8.6164 2.31939,-12.72065c0.8832,-4.81604 2.11899,-9.72727 2.68121,-14.59014c0.50315,-4.35188 1.4529,-8.64601 -1.40318,-12.25592c-0.40753,-0.51509 -0.87682,-1.27558 -1.53258,-1.23845c-1.28581,0.07282 -2.35202,1.05198 -3.54938,1.52625c-1.35284,0.53585 -2.90664,0.6681 -4.09839,1.50299c-2.58933,1.81398 -3.66093,5.28982 -6.19168,7.18467c-0.02244,0.0168 -0.04494,0.03353 -0.06749,0.05016l0.00964,0.00964l-3,3c-0.45241,0.45241 -1.07741,0.73223 -1.76777,0.73223c-1.38071,0 -2.5,-1.11929 -2.5,-2.5c0,-0.37951 0.08456,-0.73926 0.23587,-1.06145l1.87359,-4.23393c2.64212,-5.96878 6.37346,-11.75963 8.61878,-17.86597c2.57905,-7.01396 3.04182,-14.90478 3.99937,-22.24599c0.51126,-3.91968 1.68811,-7.8641 0.69107,-11.72665c-1.14295,-4.77568 -2.1733,-9.59878 -3.42096,-14.34785c-0.28002,-1.06588 -0.0159,-2.5855 -0.95272,-3.16591c-0.84517,-0.52363 -1.98821,0.3448 -2.87494,0.79447c-2.75247,1.39578 -5.22536,3.30226 -7.66805,5.18841c-9.01635,6.96204 -15.45118,17.03788 -19.04916,27.71203c-1.42193,4.21845 -2.01531,6.0217 -0.58114,10.16228c0,0 0.79057,2.37171 -1.58114,3.16228c-2.37171,0.79057 -3.16228,-1.58114 -3.16228,-1.58114c-1.67365,-5.17684 -1.12416,-8.15524 0.58114,-13.32456c3.82466,-11.5938 10.98838,-22.56113 20.73675,-30.08841c3.55408,-2.74431 10.92336,-9.07543 16.01016,-6.40548c1.99047,1.04476 2.41289,3.82096 3.26333,5.90189c1.82513,4.46586 2.43676,10.12786 3.56168,14.82822c1.04564,4.62933 0.0133,8.86778 -0.59574,13.53712c-1.00795,7.72759 -1.55082,15.94458 -4.26456,23.32485c-1.03342,2.81048 -2.37061,5.55276 -3.77389,8.27542c1.32946,-0.66314 2.82922,-1.01654 4.23731,-1.51005c4.98679,-1.74775 6.35157,-3.34794 10.41788,0.93793c5.37404,5.66421 3.09115,14.5284 1.83904,21.37697c-1.36957,7.49099 -1.95188,15.79857 -4.24162,23.05632c-2.50348,7.93525 -6.37636,15.68602 -9.51696,23.39476c-2.88789,7.07968 -6.3099,13.28848 -10.8806,19.4015l-1.23444,1.27072c0,0 -1.76777,1.76777 -3.53553,0z" fill="#000000" stroke="none" stroke-width="0.5"/></g></g></svg>